<svg width="1439" height="309" viewBox="0 0 1439 309" fill="none" xmlns="http://www.w3.org/2000/svg">
<path fill-rule="evenodd" clip-rule="evenodd" d="M-1 231.532L59 205.806C119 180.08 239 128.629 359 135.06C479 141.492 599 205.806 719 205.806C839 205.806 959 141.492 1079 96.4716C1199 51.4515 1319 25.7258 1379 12.8629L1439 0V308.709H1379C1319 308.709 1199 308.709 1079 308.709C959 308.709 839 308.709 719 308.709C599 308.709 479 308.709 359 308.709C239 308.709 119 308.709 59 308.709H-1V231.532Z" fill="#C5E3F9"/>
</svg>
