<svg width="673" height="524" viewBox="0 0 673 524" fill="none" xmlns="http://www.w3.org/2000/svg">
<path fill-rule="evenodd" clip-rule="evenodd" d="M95.9917 644.153C188.959 676.824 295.978 687.799 374.1 653.588C446.334 621.955 440.72 534.376 480.986 475.557C513.358 428.269 575.863 399.649 586.392 343.481C598.057 281.255 584.299 212.057 541.74 151.472C497.166 88.018 430.548 23.1993 348.26 4.48329C268.503 -13.6569 215.275 52.6639 138.246 59.699C53.9665 67.3965 -60.956 -0.360512 -116.752 46.9537C-171.411 93.304 -88.7352 185.56 -92.3931 255.278C-96.4451 332.507 -176.439 396.189 -139.117 473.231C-100.451 553.048 0.391468 610.557 95.9917 644.153Z" fill="#FFEBE0"/>
<path fill-rule="evenodd" clip-rule="evenodd" d="M107.587 604.332C188.884 632.901 282.468 642.498 350.783 612.581C413.949 584.92 409.04 508.335 444.251 456.9C472.559 415.548 527.218 390.52 536.425 341.404C546.626 286.99 534.595 226.479 497.378 173.499C458.4 118.011 400.145 61.3288 328.186 44.9623C258.442 29.0993 211.896 87.0945 144.537 93.2465C70.8372 99.9777 -29.6584 40.7266 -78.45 82.1012C-126.247 122.633 -53.9504 203.307 -57.1491 264.274C-60.6924 331.807 -130.644 387.496 -98.0077 454.866C-64.1955 524.663 23.9878 574.953 107.587 604.332Z" fill="white"/>
</svg>
