<svg width="673" height="524" viewBox="0 0 673 524" fill="none" xmlns="http://www.w3.org/2000/svg">
<g filter="url(#filter0_d_303_241)">
<path fill-rule="evenodd" clip-rule="evenodd" d="M577.008 644.153C484.04 676.824 377.022 687.799 298.899 653.588C226.666 621.955 232.28 534.376 192.014 475.557C159.642 428.269 97.1368 399.649 86.6075 343.481C74.9424 281.255 88.7007 212.057 131.26 151.472C175.833 88.018 242.452 23.1993 324.74 4.48329C404.497 -13.6569 457.725 52.6639 534.753 59.699C619.033 67.3965 733.956 -0.360512 789.752 46.9537C844.411 93.304 761.735 185.56 765.393 255.278C769.445 332.507 849.439 396.189 812.117 473.231C773.451 553.048 672.608 610.557 577.008 644.153Z" fill="#CDE3D5"/>
</g>
<path fill-rule="evenodd" clip-rule="evenodd" d="M566.112 608.332C484.815 636.901 391.232 646.498 322.916 616.581C259.75 588.92 264.659 512.335 229.448 460.9C201.14 419.548 146.482 394.521 137.274 345.404C127.073 290.99 139.104 230.478 176.321 177.499C215.299 122.011 273.555 65.3288 345.513 48.9623C415.257 33.0993 461.803 91.0945 529.162 97.2465C602.862 103.978 703.358 44.7266 752.149 86.1012C799.947 126.633 727.65 207.307 730.848 268.274C734.392 335.807 804.344 391.496 771.707 458.866C737.895 528.663 649.711 578.953 566.112 608.332Z" fill="white"/>
<path d="M296.83 206V156.351H307.871V206H296.83ZM305.269 186.52V177.027H330.094V186.52H305.269ZM305.269 165.845V156.351H331.219V165.845H305.269ZM430.739 206V157.055H441.78V206H430.739ZM415.198 165.986V156.351H457.322V165.986H415.198ZM541.65 206.774C537.946 206.774 534.641 206.023 531.734 204.523C528.874 202.976 526.624 200.843 524.983 198.124C523.342 195.405 522.522 192.334 522.522 188.911C522.522 185.489 523.319 182.441 524.913 179.769C526.554 177.05 528.757 174.917 531.523 173.37C534.289 171.823 537.407 171.049 540.876 171.049C544.252 171.049 547.229 171.776 549.807 173.229C552.386 174.682 554.402 176.698 555.855 179.277C557.356 181.855 558.106 184.809 558.106 188.138C558.106 188.747 558.059 189.404 557.965 190.107C557.918 190.763 557.801 191.537 557.613 192.427L528.148 192.498V185.114L553.042 185.043L548.401 188.138C548.354 186.169 548.049 184.551 547.487 183.285C546.924 181.973 546.08 180.988 544.955 180.332C543.877 179.629 542.541 179.277 540.947 179.277C539.259 179.277 537.782 179.675 536.516 180.472C535.297 181.223 534.336 182.301 533.633 183.707C532.977 185.114 532.648 186.825 532.648 188.841C532.648 190.857 533 192.592 533.703 194.045C534.453 195.451 535.485 196.553 536.798 197.35C538.157 198.1 539.751 198.475 541.58 198.475C543.267 198.475 544.791 198.194 546.151 197.631C547.51 197.022 548.706 196.131 549.737 194.959L555.644 200.866C553.957 202.835 551.917 204.312 549.526 205.297C547.135 206.281 544.51 206.774 541.65 206.774Z" fill="#FE9B53"/>
<path d="M353.219 206.774C350.078 206.774 347.288 206.141 344.851 204.875C342.46 203.562 340.584 201.781 339.225 199.53C337.865 197.233 337.185 194.608 337.185 191.654V171.823H347.945V191.513C347.945 192.685 348.132 193.693 348.507 194.537C348.929 195.381 349.539 196.037 350.336 196.506C351.133 196.975 352.094 197.21 353.219 197.21C354.813 197.21 356.079 196.717 357.017 195.733C357.954 194.701 358.423 193.295 358.423 191.513V171.823H369.183V191.584C369.183 194.584 368.503 197.233 367.143 199.53C365.784 201.781 363.908 203.562 361.517 204.875C359.126 206.141 356.36 206.774 353.219 206.774Z" fill="#FE9B53"/>
<path d="M353.219 206.774C350.078 206.774 347.288 206.141 344.851 204.875C342.46 203.562 340.584 201.781 339.225 199.53C337.865 197.233 337.185 194.608 337.185 191.654V171.823H347.945V191.513C347.945 192.685 348.132 193.693 348.507 194.537C348.929 195.381 349.539 196.037 350.336 196.506C351.133 196.975 352.094 197.21 353.219 197.21C354.813 197.21 356.079 196.717 357.017 195.733C357.954 194.701 358.423 193.295 358.423 191.513V171.823H369.183V191.584C369.183 194.584 368.503 197.233 367.143 199.53C365.784 201.781 363.908 203.562 361.517 204.875C359.126 206.141 356.36 206.774 353.219 206.774Z" fill="#87C38F"/>
<path d="M399.215 206V186.52C399.215 184.739 398.653 183.309 397.528 182.231C396.449 181.105 395.066 180.543 393.378 180.543C392.206 180.543 391.175 180.801 390.284 181.316C389.393 181.785 388.69 182.488 388.174 183.426C387.659 184.317 387.401 185.348 387.401 186.52L383.252 184.481C383.252 181.809 383.838 179.464 385.01 177.448C386.182 175.433 387.799 173.885 389.862 172.807C391.972 171.682 394.34 171.119 396.965 171.119C399.497 171.119 401.724 171.729 403.646 172.948C405.615 174.12 407.162 175.69 408.287 177.659C409.412 179.629 409.975 181.785 409.975 184.129V206H399.215ZM376.641 206V171.823H387.401V206H376.641Z" fill="#FE9B53"/>
<path d="M399.215 206V186.52C399.215 184.739 398.653 183.309 397.528 182.231C396.449 181.105 395.066 180.543 393.378 180.543C392.206 180.543 391.175 180.801 390.284 181.316C389.393 181.785 388.69 182.488 388.174 183.426C387.659 184.317 387.401 185.348 387.401 186.52L383.252 184.481C383.252 181.809 383.838 179.464 385.01 177.448C386.182 175.433 387.799 173.885 389.862 172.807C391.972 171.682 394.34 171.119 396.965 171.119C399.497 171.119 401.724 171.729 403.646 172.948C405.615 174.12 407.162 175.69 408.287 177.659C409.412 179.629 409.975 181.785 409.975 184.129V206H399.215ZM376.641 206V171.823H387.401V206H376.641Z" fill="#5FBFF9"/>
<path d="M477.482 206.703C474.34 206.703 471.527 205.93 469.043 204.383C466.605 202.835 464.659 200.726 463.206 198.053C461.799 195.381 461.096 192.334 461.096 188.911C461.096 185.489 461.799 182.441 463.206 179.769C464.659 177.097 466.605 174.987 469.043 173.44C471.527 171.893 474.34 171.119 477.482 171.119C479.779 171.119 481.842 171.565 483.67 172.455C485.545 173.346 487.069 174.589 488.241 176.183C489.413 177.73 490.069 179.511 490.21 181.527V196.295C490.069 198.311 489.413 200.116 488.241 201.71C487.116 203.257 485.616 204.476 483.74 205.367C481.865 206.258 479.779 206.703 477.482 206.703ZM479.662 196.999C481.959 196.999 483.811 196.248 485.217 194.748C486.624 193.201 487.327 191.255 487.327 188.911C487.327 187.317 486.999 185.911 486.342 184.692C485.733 183.473 484.842 182.535 483.67 181.879C482.545 181.176 481.232 180.824 479.732 180.824C478.232 180.824 476.895 181.176 475.723 181.879C474.598 182.535 473.684 183.473 472.981 184.692C472.324 185.911 471.996 187.317 471.996 188.911C471.996 190.458 472.324 191.841 472.981 193.06C473.637 194.279 474.551 195.24 475.723 195.944C476.895 196.647 478.208 196.999 479.662 196.999ZM486.905 206V196.788L488.522 188.489L486.905 180.191V171.823H497.453V206H486.905ZM576.45 206.844C574.434 206.844 572.441 206.586 570.472 206.07C568.55 205.555 566.745 204.828 565.057 203.89C563.416 202.906 562.01 201.781 560.838 200.515L566.956 194.326C568.081 195.545 569.417 196.506 570.965 197.21C572.512 197.866 574.199 198.194 576.028 198.194C577.294 198.194 578.255 198.007 578.911 197.631C579.614 197.256 579.966 196.741 579.966 196.084C579.966 195.24 579.544 194.608 578.7 194.186C577.903 193.717 576.872 193.318 575.606 192.99C574.34 192.615 573.004 192.217 571.597 191.795C570.191 191.373 568.855 190.787 567.589 190.036C566.323 189.286 565.292 188.255 564.495 186.942C563.698 185.583 563.299 183.871 563.299 181.809C563.299 179.605 563.862 177.706 564.987 176.112C566.112 174.471 567.706 173.182 569.769 172.245C571.832 171.307 574.246 170.838 577.012 170.838C579.919 170.838 582.591 171.354 585.029 172.385C587.514 173.37 589.53 174.846 591.077 176.816L584.959 183.004C583.881 181.738 582.662 180.847 581.302 180.332C579.989 179.816 578.7 179.558 577.434 179.558C576.215 179.558 575.301 179.746 574.692 180.121C574.082 180.449 573.777 180.941 573.777 181.598C573.777 182.301 574.176 182.863 574.973 183.285C575.77 183.707 576.801 184.082 578.067 184.411C579.333 184.739 580.669 185.137 582.076 185.606C583.482 186.075 584.818 186.708 586.084 187.505C587.35 188.302 588.381 189.38 589.178 190.74C589.975 192.052 590.374 193.787 590.374 195.944C590.374 199.272 589.108 201.921 586.576 203.89C584.092 205.859 580.716 206.844 576.45 206.844Z" fill="#87C38F"/>
<path d="M505.732 206V154.945H516.492V206H505.732Z" fill="#5FBFF9"/>
<g clip-path="url(#clip0_303_241)">
<path d="M231.119 177.14C231.196 186.097 231.273 195.054 231.351 204.012C245.313 206.057 256.949 212.351 256.949 212.351C256.949 212.351 268.237 206.057 282.199 204.012C282.276 195.054 282.353 186.097 282.43 177.14C268.299 178.299 256.832 185.943 256.832 185.943C256.832 185.943 245.249 178.299 231.119 177.14Z" fill="#87C38F"/>
<path d="M275.267 147.158C273.477 148.904 268.991 151.82 267.879 152.528C265.323 154.155 263.733 156.959 263.733 156.959L263.735 156.961C261.559 156.337 259.136 155.947 256.718 155.906C254.3 155.948 251.992 156.337 249.816 156.961V156.959C249.816 156.959 248.226 154.154 245.671 152.528C244.559 151.82 240.072 148.904 238.281 147.158C232.349 153.241 237.391 163.465 237.391 163.465L237.413 163.459C233.45 166.475 230.816 169.375 229.961 169.957C232.161 169.436 233.841 169.291 233.841 169.291C233.841 169.291 232.172 169.665 228.369 173.981C230.801 172.766 234.691 172.07 235.985 172.157C233.002 173.114 231.496 174.349 231.062 174.59C244.506 174.59 256.77 183.388 256.775 183.392C256.775 183.392 269.043 174.589 282.488 174.589C282.053 174.348 280.548 173.113 277.565 172.156C278.858 172.07 282.748 172.765 285.181 173.98C281.376 169.664 279.708 169.289 279.708 169.289C279.708 169.289 281.388 169.434 283.588 169.956C282.734 169.373 280.099 166.473 276.137 163.458L276.159 163.464C276.159 163.464 281.201 153.241 275.268 147.157L275.267 147.158Z" fill="#FC8F30"/>
<path d="M255.698 155.603C253.465 155.552 249.968 156.96 249.968 156.96C248.459 157.831 255.385 176.285 256.71 180.85C256.746 181.388 256.775 181.792 256.775 181.792C256.775 181.712 256.802 181.567 256.85 181.368C256.899 181.567 256.927 181.712 256.927 181.792C256.927 181.792 256.955 181.388 256.991 180.851C258.315 176.288 265.243 157.831 263.734 156.96C263.734 156.96 258.694 154.93 256.851 155.834C256.544 155.683 256.147 155.613 255.699 155.603H255.698Z" fill="#FDAB63"/>
<path d="M245.756 159.034C245.756 159.034 243.748 157.818 243.31 155.601C243.279 156.584 243.246 157.565 243.213 158.547C240.959 155.628 241.508 154.066 241.508 154.066C241.508 154.066 239.706 159.375 241.167 160.738C241.962 160.463 245.756 159.034 245.756 159.034Z" fill="#FDAB63"/>
<path d="M267.944 159.222C267.944 159.222 269.952 158.006 270.39 155.789C270.422 156.772 270.454 157.753 270.487 158.735C272.741 155.817 272.192 154.254 272.192 154.254C272.192 154.254 273.994 159.563 272.533 160.927C271.738 160.651 267.944 159.222 267.944 159.222Z" fill="#FDAB63"/>
<path d="M248.582 162.885C251.118 163.795 249.049 164.608 247.549 164.194C246.05 163.781 248.582 162.885 248.582 162.885Z" fill="#FDAB63"/>
<path d="M265.118 162.885C262.583 163.795 264.652 164.608 266.151 164.194C267.65 163.781 265.118 162.885 265.118 162.885Z" fill="#FDAB63"/>
<path d="M255.566 180.707C254.836 180.704 254.004 181.071 253.779 181.503C253.354 182.316 256.773 183.394 256.773 183.394C256.773 183.394 260.191 182.317 259.767 181.503C259.343 180.69 256.774 180.106 256.774 181.792C256.774 181.002 256.209 180.71 255.566 180.707Z" fill="#F67504"/>
</g>
<g clip-path="url(#clip1_303_241)">
<path d="M325.765 331.107C338.873 331.107 349.498 320.509 349.498 307.436C349.498 294.364 338.873 283.766 325.765 283.766C312.657 283.766 302.031 294.364 302.031 307.436C302.031 320.509 312.657 331.107 325.765 331.107Z" fill="#0993E7"/>
<path d="M384.534 336.742C400.762 336.742 413.918 323.622 413.918 307.436C413.918 291.251 400.762 278.131 384.534 278.131C368.305 278.131 355.149 291.251 355.149 307.436C355.149 323.622 368.305 336.742 384.534 336.742Z" fill="#2CAAF7"/>
<path d="M442.173 332.233C455.28 332.233 465.906 321.636 465.906 308.563C465.906 295.491 455.28 284.893 442.173 284.893C429.065 284.893 418.439 295.491 418.439 308.563C418.439 321.636 429.065 332.233 442.173 332.233Z" fill="#5FBFF9"/>
<path d="M494.161 332.233C507.268 332.233 517.894 321.636 517.894 308.563C517.894 295.491 507.268 284.893 494.161 284.893C481.053 284.893 470.427 295.491 470.427 308.563C470.427 321.636 481.053 332.233 494.161 332.233Z" fill="#8ED2FB"/>
<path d="M325.765 398.735C338.873 398.735 349.498 388.138 349.498 375.065C349.498 361.992 338.873 351.395 325.765 351.395C312.657 351.395 302.031 361.992 302.031 375.065C302.031 388.138 312.657 398.735 325.765 398.735Z" fill="#4C9957"/>
<path d="M384.534 404.371C400.762 404.371 413.918 391.25 413.918 375.065C413.918 358.88 400.762 345.759 384.534 345.759C368.305 345.759 355.149 358.88 355.149 375.065C355.149 391.25 368.305 404.371 384.534 404.371Z" fill="#63B675"/>
<path d="M442.173 399.862C455.28 399.862 465.906 389.265 465.906 376.192C465.906 363.12 455.28 352.522 442.173 352.522C429.065 352.522 418.439 363.12 418.439 376.192C418.439 389.265 429.065 399.862 442.173 399.862Z" fill="#87C38F"/>
<path d="M494.161 399.862C507.268 399.862 517.894 389.265 517.894 376.192C517.894 363.12 507.268 352.522 494.161 352.522C481.053 352.522 470.427 363.12 470.427 376.192C470.427 389.265 481.053 399.862 494.161 399.862Z" fill="#AAD5B0"/>
<path d="M325.765 466.364C338.873 466.364 349.498 455.767 349.498 442.694C349.498 429.621 338.873 419.024 325.765 419.024C312.657 419.024 302.031 429.621 302.031 442.694C302.031 455.767 312.657 466.364 325.765 466.364Z" fill="#C45D03"/>
<path d="M384.534 472C400.762 472 413.918 458.879 413.918 442.694C413.918 426.509 400.762 413.388 384.534 413.388C368.305 413.388 355.149 426.509 355.149 442.694C355.149 458.879 368.305 472 384.534 472Z" fill="#F67504"/>
<path d="M442.173 467.491C455.28 467.491 465.906 456.894 465.906 443.821C465.906 430.749 455.28 420.151 442.173 420.151C429.065 420.151 418.439 430.749 418.439 443.821C418.439 456.894 429.065 467.491 442.173 467.491Z" fill="#FC8F30"/>
<path d="M494.161 467.491C507.268 467.491 517.894 456.894 517.894 443.821C517.894 430.749 507.268 420.151 494.161 420.151C481.053 420.151 470.427 430.749 470.427 443.821C470.427 456.894 481.053 467.491 494.161 467.491Z" fill="#FDAB63"/>
</g>
<defs>
<filter id="filter0_d_303_241" x="76.6331" y="-4.64697" width="759.378" height="693.172" filterUnits="userSpaceOnUse" color-interpolation-filters="sRGB">
<feFlood flood-opacity="0" result="BackgroundImageFix"/>
<feColorMatrix in="SourceAlpha" type="matrix" values="0 0 0 0 0 0 0 0 0 0 0 0 0 0 0 0 0 0 127 0" result="hardAlpha"/>
<feOffset dx="4" dy="4"/>
<feGaussianBlur stdDeviation="5"/>
<feComposite in2="hardAlpha" operator="out"/>
<feColorMatrix type="matrix" values="0 0 0 0 0 0 0 0 0 0 0 0 0 0 0 0 0 0 0.25 0"/>
<feBlend mode="normal" in2="BackgroundImageFix" result="effect1_dropShadow_303_241"/>
<feBlend mode="normal" in="SourceGraphic" in2="effect1_dropShadow_303_241" result="shape"/>
</filter>
<clipPath id="clip0_303_241">
<rect width="57.5481" height="65.9287" fill="white" transform="translate(228 146.791)"/>
</clipPath>
<clipPath id="clip1_303_241">
<rect width="215.863" height="193.869" fill="white" transform="translate(302.031 278.131)"/>
</clipPath>
</defs>
</svg>
