<svg width="637" height="523" viewBox="0 0 637 523" fill="none" xmlns="http://www.w3.org/2000/svg">
<path fill-rule="evenodd" clip-rule="evenodd" d="M494.481 643.438C401.513 676.109 294.495 687.083 216.372 652.872C144.139 621.24 149.752 533.66 109.486 474.841C77.1142 427.553 14.6094 398.933 4.08016 342.766C-7.58498 280.54 6.17333 211.342 48.7322 150.756C93.306 87.3024 159.925 22.4837 242.213 3.76771C321.969 -14.3725 375.198 51.9483 452.226 58.9834C536.506 66.6809 651.428 -1.07609 707.224 46.2381C761.883 92.5884 679.208 184.844 682.866 254.563C686.918 331.791 766.911 395.474 729.59 472.516C690.924 552.333 590.081 609.842 494.481 643.438Z" fill="#C5E3F9"/>
</svg>
