<svg width="673" height="524" viewBox="0 0 673 524" fill="none" xmlns="http://www.w3.org/2000/svg">
<path d="M576.842 643.682C483.926 676.335 377.054 687.267 299.1 653.13C263.171 637.396 246.581 607.752 233.936 574.589C230.775 566.298 227.863 557.794 224.956 549.234C224.721 548.543 224.486 547.852 224.252 547.16C221.58 539.286 218.895 531.377 216.013 523.567C209.743 506.576 202.527 490.029 192.426 475.274C180.055 457.203 163.285 441.841 146.733 426.678C141.576 421.954 136.44 417.249 131.465 412.488C110.487 392.411 92.3326 371.307 87.0989 343.389C75.4595 281.3 89.1845 212.238 131.669 151.759C176.214 88.3464 242.74 23.6466 324.851 4.97087C364.559 -4.0605 397.674 7.92122 430.56 23.1043C435.741 25.4963 440.918 27.9686 446.113 30.4502C473.866 43.7052 502.175 57.2256 534.708 60.197C555.848 62.1277 578.888 59.3258 602.401 54.7924C616.772 52.0215 631.351 48.5968 645.789 45.2052C654.959 43.051 664.073 40.9102 673.04 38.9587C696.154 33.9286 718.336 30.1465 738.211 30.5668C758.079 30.987 775.597 35.6061 789.428 47.335C802.961 58.811 807.998 73.1171 807.991 89.254C807.983 105.419 802.914 123.406 796.227 142.185C793.381 150.176 790.248 158.298 787.092 166.478C786.541 167.906 785.989 169.336 785.438 170.767C781.733 180.392 778.063 190.075 774.868 199.675C768.48 218.869 763.974 237.78 764.894 255.305C765.911 274.693 771.693 293.213 779.19 311.272C783.68 322.089 788.801 332.775 793.886 343.385C797.278 350.462 800.654 357.505 803.814 364.53C819.642 399.709 830.225 434.705 811.667 473.013C792.386 512.815 757.585 547.086 715.632 575.612C673.682 604.135 624.613 626.894 576.842 643.682Z" fill="#2E3946" stroke="black"/>
<path fill-rule="evenodd" clip-rule="evenodd" d="M566.112 608.332C484.815 636.901 391.232 646.498 322.916 616.581C259.75 588.92 264.659 512.335 229.448 460.9C201.14 419.548 146.482 394.521 137.274 345.404C127.073 290.99 139.104 230.478 176.321 177.499C215.299 122.011 273.555 65.3288 345.513 48.9623C415.257 33.0993 461.803 91.0945 529.162 97.2465C602.862 103.978 703.358 44.7266 752.149 86.1012C799.947 126.633 727.65 207.307 730.848 268.274C734.392 335.807 804.344 391.496 771.707 458.866C737.895 528.663 649.711 578.953 566.112 608.332Z" fill="white"/>
<circle cx="338" cy="355" r="38" fill="#2E3946"/>
<circle cx="338" cy="439" r="38" fill="#C6A863"/>
<circle cx="416" cy="355" r="31" fill="#2E3946" fill-opacity="0.5"/>
<circle cx="487" cy="355" r="31" fill="#2E3946" fill-opacity="0.1"/>
<circle cx="416" cy="439" r="31" fill="#C6A863" fill-opacity="0.5"/>
<circle cx="487" cy="439" r="31" fill="#C6A863" fill-opacity="0.1"/>
<path d="M254.506 166.933V259.834H189.492V192.217L254.506 166.933Z" fill="#C6A863"/>
<path d="M231.898 185.115L231.915 191.756H267.779L317.796 218.5V214.122L267.779 185.115H231.898Z" fill="#2E3946"/>
<path d="M231.929 197.908L231.946 204.55H267.811L317.795 227.626V223.379L267.811 197.908H231.929Z" fill="#2E3946"/>
<path d="M231.964 211.06L231.981 217.701H267.845L317.796 235.967V231.438L267.845 211.06H231.964Z" fill="#2E3946"/>
<path d="M231.997 224.305L232.014 230.947H267.879L317.795 244.686V240.44L267.879 224.305H231.997Z" fill="#2E3946"/>
<path d="M231.997 237.514L232.014 244.156H267.879L317.795 253.369V248.689L267.879 237.514H231.997Z" fill="#2E3946"/>
<path d="M231.997 250.491L232.014 257.133H267.879L317.795 261.536V257.281L267.879 250.491H231.997Z" fill="#2E3946"/>
<path d="M232.098 263.495L232.115 270.136H267.979H317.795L317.796 265.333L267.979 263.495H232.098Z" fill="#2E3946"/>
<g filter="url(#filter0_i_311_249)">
<path d="M350.093 193.518L352.289 210.082C352.444 211.09 353.245 211.684 354.175 211.684H354.589V211.942H346.811V211.71H347.224C347.767 211.71 348.284 211.167 348.232 210.599L347.198 201.244L342.366 209.617C342.366 209.617 341.41 211.219 341.358 212.459H341.126L334.485 201.296L333.451 210.599C333.399 211.167 333.916 211.71 334.459 211.71H334.872V211.942H329.472V211.684H329.859C330.789 211.684 331.616 211.09 331.771 210.082L333.89 193.492H334.149L342.159 206.697L349.834 193.518H350.093ZM363.249 211.684V211.942H355.393V211.684H355.729C356.633 211.684 357.357 210.96 357.383 210.082V195.74C357.357 194.836 356.633 194.112 355.729 194.112H355.393V193.854H363.249V194.112H362.913C362.008 194.112 361.285 194.836 361.259 195.74V210.082C361.285 210.96 362.008 211.684 362.913 211.684H363.249ZM382.221 204.423H382.428L382.686 208.867C381.524 210.78 379.327 212.33 375.425 212.33C369.068 212.304 364.934 208.79 364.934 202.898C364.934 197.11 368.939 193.518 375.503 193.518C378.242 193.518 380.464 194.138 381.937 194.913L381.989 199.332H381.756C380.826 195.947 378.604 194.603 375.761 194.603C371.652 194.603 369.146 197.756 369.146 202.821C369.146 207.937 371.575 211.115 375.425 211.219C379.405 211.219 381.42 209.488 382.221 204.423ZM405.048 211.942L397.218 211.968V211.71H397.528C398.432 211.71 399.156 210.986 399.182 210.082V203.492H390.809V210.082C390.835 210.96 391.559 211.71 392.463 211.71H392.799V211.968H384.943V211.71H385.279C386.184 211.71 386.907 210.96 386.933 210.082V195.74C386.907 194.862 386.184 194.112 385.279 194.112H384.943V193.854H392.799V194.112H392.463C391.559 194.112 390.835 194.862 390.809 195.74V202.407H399.182V195.74C399.156 194.862 398.432 194.112 397.528 194.112H397.218V193.854H405.048V194.112H404.738C403.833 194.112 403.084 194.836 403.084 195.74V210.082C403.084 210.96 403.833 211.684 404.738 211.684H405.048V211.942ZM415.138 193.337L422.812 210.185C423.381 211.245 424.259 211.684 425.035 211.684H425.241V211.942H416.998V211.71H417.231C417.903 211.71 418.626 211.115 418.239 210.082L416.972 206.878H410.9L409.582 210.082C409.143 211.115 409.892 211.71 410.564 211.71H410.796V211.942H405.241V211.684H405.473C406.223 211.684 407.101 211.271 407.67 210.237L413.639 196.722C413.82 196.335 414.853 194.112 414.905 193.337H415.138ZM411.365 205.792H416.533L414.001 199.461L411.365 205.792ZM440.121 206.671L438.932 211.968H425.547V211.71H425.883C426.787 211.71 427.537 210.96 427.537 210.082V204.681L425.495 205.87L424.927 204.888L427.537 203.363V195.74C427.537 194.862 426.787 194.112 425.883 194.112H425.547V193.854H433.402V194.112H433.067C432.162 194.112 431.439 194.862 431.413 195.74V201.141L433.893 199.694L434.462 200.676L431.413 202.433V210.857H434.798C437.382 210.857 439.062 209.255 439.863 206.671H440.121ZM465.296 204.423H465.502L465.761 208.867C464.598 210.78 462.401 212.33 458.499 212.33C452.143 212.304 448.008 208.79 448.008 202.898C448.008 197.11 452.013 193.518 458.577 193.518C461.316 193.518 463.538 194.138 465.011 194.913L465.063 199.332H464.83C463.9 195.947 461.678 194.603 458.835 194.603C454.727 194.603 452.22 197.756 452.22 202.821C452.22 207.937 454.649 211.115 458.499 211.219C462.479 211.219 464.494 209.488 465.296 204.423ZM488.122 211.942L480.292 211.968V211.71H480.602C481.507 211.71 482.23 210.986 482.256 210.082V203.492H473.884V210.082C473.909 210.96 474.633 211.71 475.537 211.71H475.873V211.968H468.018V211.71H468.354C469.258 211.71 469.982 210.96 470.007 210.082V195.74C469.982 194.862 469.258 194.112 468.354 194.112H468.018V193.854H475.873V194.112H475.537C474.633 194.112 473.909 194.862 473.884 195.74V202.407H482.256V195.74C482.23 194.862 481.507 194.112 480.602 194.112H480.292V193.854H488.122V194.112H487.812C486.907 194.112 486.158 194.836 486.158 195.74V210.082C486.158 210.96 486.907 211.684 487.812 211.684H488.122V211.942ZM500.133 193.492C506.334 193.492 510.288 197.11 510.288 202.924C510.288 208.712 506.334 212.304 500.133 212.304C493.931 212.304 489.951 208.712 489.951 202.924C489.951 197.11 493.931 193.492 500.133 193.492ZM500.133 211.219C503.776 211.219 506.05 208.04 506.05 202.924C506.05 197.782 503.776 194.603 500.133 194.603C496.489 194.603 494.189 197.782 494.189 202.924C494.189 208.04 496.489 211.219 500.133 211.219ZM512.156 193.854H520.011V194.112H519.701C518.797 194.112 518.048 194.836 518.022 195.74V211.167C518.022 214.992 514.714 217.472 511.122 217.136V216.904C513.319 215.974 514.146 213.493 514.146 211.09V195.74C514.146 194.836 513.396 194.112 512.492 194.112H512.182L512.156 193.854ZM534.381 193.854H542.211V194.112H541.745C540.867 194.112 540.169 194.81 540.143 195.663V209.022C540.143 210.96 540.427 212.33 540.427 212.33H540.195L527.145 199.875V210.134C527.171 211.012 527.869 211.71 528.747 211.71H529.213V211.968H521.383V211.71H521.874C522.752 211.71 523.45 210.986 523.476 210.134V196.696C523.476 194.784 523.166 193.492 523.166 193.492H523.424L536.448 205.896V195.689C536.448 194.836 535.724 194.112 534.872 194.112H534.381V193.854ZM551.988 193.337L559.663 210.185C560.231 211.245 561.11 211.684 561.885 211.684H562.092V211.942H553.849V211.71H554.081C554.753 211.71 555.477 211.115 555.089 210.082L553.823 206.878H547.75L546.432 210.082C545.993 211.115 546.742 211.71 547.414 211.71H547.647V211.942H542.091V211.684H542.324C543.073 211.684 543.952 211.271 544.52 210.237L550.489 196.722C550.67 196.335 551.704 194.112 551.755 193.337H551.988ZM548.215 205.792H553.383L550.851 199.461L548.215 205.792ZM578.93 204.423H579.136L579.395 208.867C578.232 210.78 576.035 212.33 572.133 212.33C565.777 212.304 561.642 208.79 561.642 202.898C561.642 197.11 565.647 193.518 572.211 193.518C574.95 193.518 577.172 194.138 578.645 194.913L578.697 199.332H578.464C577.534 195.947 575.312 194.603 572.469 194.603C568.361 194.603 565.854 197.756 565.854 202.821C565.854 207.937 568.283 211.115 572.133 211.219C576.113 211.219 578.128 209.488 578.93 204.423ZM587.518 195.74V210.082C587.543 210.96 588.267 211.684 589.171 211.684H589.507V211.942H581.652V211.684H581.988C582.892 211.684 583.616 210.96 583.641 210.082V195.74C583.616 194.836 582.892 194.112 581.988 194.112H581.652V193.854H589.507V194.112H589.171C588.267 194.112 587.543 194.836 587.518 195.74ZM591.6 201.322L598.035 210.082C598.81 211.141 599.611 211.658 600.671 211.684V211.942H598.526C597.802 211.942 594.675 211.994 592.97 209.798C592.479 209.152 588.344 203.467 588.344 203.415L594.495 195.327C594.934 194.732 594.598 194.086 593.874 194.086H593.616V193.854H599.559V194.086H599.43C598.319 194.112 597.285 194.603 596.614 195.353L591.6 201.322ZM609.065 211.684V211.942H601.209V211.684H601.545C602.449 211.684 603.173 210.96 603.199 210.082V195.74C603.173 194.836 602.449 194.112 601.545 194.112H601.209V193.854H609.065V194.112H608.729C607.824 194.112 607.101 194.836 607.075 195.74V210.082C607.101 210.96 607.824 211.684 608.729 211.684H609.065Z" fill="#2E3946"/>
</g>
<g filter="url(#filter1_i_311_249)">
<path d="M345.978 233.664H354.786V233.954H354.263C353.275 233.954 352.49 234.739 352.461 235.699V250.728C352.461 252.909 352.781 254.449 352.781 254.449H352.519L337.838 240.437V251.978C337.867 252.967 338.652 253.752 339.64 253.752H340.164V254.042H331.355V253.752H331.908C332.896 253.752 333.681 252.938 333.71 251.978V236.862C333.71 234.71 333.361 233.257 333.361 233.257H333.652L348.304 247.211V235.728C348.304 234.768 347.49 233.954 346.53 233.954H345.978V233.664ZM365.241 253.723V254.013H356.403V253.723H356.781C357.798 253.723 358.612 252.909 358.642 251.92V235.786C358.612 234.768 357.798 233.954 356.781 233.954H356.403V233.664H365.241V233.954H364.863C363.845 233.954 363.031 234.768 363.002 235.786V251.92C363.031 252.909 363.845 253.723 364.863 253.723H365.241ZM384.013 248.083L382.676 254.042H367.617L367.646 253.752H367.995C369.012 253.752 369.855 252.909 369.855 251.92V235.699C369.797 234.739 368.983 233.954 367.995 233.954H367.646L367.617 233.664H378.78C380.03 233.664 381.716 233.373 382.24 233.141V238.228H381.949V237.879C381.949 236.135 380.844 235.001 379.1 234.914H374.216V243.373H378.082C379.507 243.344 380.553 242.298 380.553 240.873V240.641H380.815V247.356H380.553V247.095C380.553 245.699 379.507 244.653 378.112 244.594H374.216V252.792H378.024C380.931 252.792 382.821 250.99 383.722 248.083H384.013ZM385.93 233.664H395.931C399.448 233.664 402.82 235.117 402.82 239.158C402.82 241.6 401.367 244.362 398.082 244.682C399.303 245.089 400.378 246.251 401.047 247.269C401.134 247.414 402.879 250.176 403.954 251.542C405.204 253.141 406.047 253.723 407.559 253.723V254.013H404.739C401.541 254.013 399.245 253.345 397.907 251.019C397.21 249.769 395.872 246.891 395.495 246.048C394.913 244.827 394.274 244.217 393.518 244.071V243.81H394.39C395.96 243.78 397.559 242.996 398.082 240.437C398.14 240.088 398.198 239.623 398.169 239.042C398.053 236.251 396.657 235.001 394.739 234.972C393.983 234.914 392.907 234.972 392.558 234.943V251.92C392.558 252.909 393.401 253.723 394.419 253.723H394.768V254.013H385.93L385.959 253.723H386.308C387.326 253.723 388.14 252.938 388.169 251.92V235.786C388.169 234.768 387.326 233.954 386.308 233.954H385.93V233.664ZM422.01 233.664H428.085V233.954H427.62C426.806 233.954 426.138 234.536 426.079 235.35V246.658C426.079 251.426 422.94 254.449 417.707 254.449C411.486 254.449 408.259 251.455 408.259 246.717V235.408C408.23 234.565 407.561 233.954 406.718 233.954H406.224V233.664H414.596V233.954H414.131C413.317 233.954 412.649 234.565 412.591 235.379V246.455C412.591 250.583 414.771 253.17 418.259 253.17C421.806 253.17 424.015 250.728 424.015 246.833V235.379C423.986 234.565 423.318 233.954 422.475 233.954H422.01V233.664ZM449.581 245.554H449.814L450.105 250.554C448.796 252.705 446.325 254.449 441.936 254.449C434.784 254.42 430.133 250.467 430.133 243.839C430.133 237.327 434.639 233.286 442.023 233.286C445.104 233.286 447.604 233.984 449.261 234.856L449.32 239.827H449.058C448.011 236.019 445.511 234.507 442.314 234.507C437.691 234.507 434.871 238.053 434.871 243.751C434.871 249.507 437.604 253.083 441.936 253.199C446.413 253.199 448.68 251.252 449.581 245.554ZM475.261 254.013L466.452 254.042V253.752H466.801C467.819 253.752 468.633 252.938 468.662 251.92V244.507H459.243V251.92C459.272 252.909 460.086 253.752 461.103 253.752H461.481V254.042H452.644V253.752H453.022C454.039 253.752 454.853 252.909 454.882 251.92V235.786C454.853 234.798 454.039 233.954 453.022 233.954H452.644V233.664H461.481V233.954H461.103C460.086 233.954 459.272 234.798 459.243 235.786V243.286H468.662V235.786C468.633 234.798 467.819 233.954 466.801 233.954H466.452V233.664H475.261V233.954H474.912C473.895 233.954 473.051 234.768 473.051 235.786V251.92C473.051 252.909 473.895 253.723 474.912 253.723H475.261V254.013ZM488.773 233.257C495.75 233.257 500.198 237.327 500.198 243.868C500.198 250.38 495.75 254.42 488.773 254.42C481.796 254.42 477.319 250.38 477.319 243.868C477.319 237.327 481.796 233.257 488.773 233.257ZM488.773 253.199C492.872 253.199 495.43 249.624 495.43 243.868C495.43 238.083 492.872 234.507 488.773 234.507C484.674 234.507 482.087 238.083 482.087 243.868C482.087 249.624 484.674 253.199 488.773 253.199ZM524.127 233.286L526.598 251.92C526.773 253.054 527.674 253.723 528.72 253.723H529.186V254.013H520.435V253.752H520.9C521.511 253.752 522.092 253.141 522.034 252.502L520.871 241.978L515.435 251.397C515.435 251.397 514.359 253.199 514.301 254.595H514.04L506.568 242.036L505.406 252.502C505.347 253.141 505.929 253.752 506.539 253.752H507.004V254.013H500.929V253.723H501.365C502.411 253.723 503.342 253.054 503.516 251.92L505.9 233.257H506.191L515.202 248.112L523.837 233.286H524.127ZM541.492 233.257C548.469 233.257 552.917 237.327 552.917 243.868C552.917 250.38 548.469 254.42 541.492 254.42C534.515 254.42 530.038 250.38 530.038 243.868C530.038 237.327 534.515 233.257 541.492 233.257ZM541.492 253.199C545.591 253.199 548.15 249.624 548.15 243.868C548.15 238.083 545.591 234.507 541.492 234.507C537.393 234.507 534.806 238.083 534.806 243.868C534.806 249.624 537.393 253.199 541.492 253.199ZM562.247 231.861L562.043 231.658C563.003 229.972 564.951 228.024 566.201 226.89C567.247 227.443 567.829 228.228 568.177 229.245C566.462 230.35 564.137 231.396 562.247 231.861ZM561.462 240.001L566.986 243.606C568.73 244.711 569.718 246.251 569.602 248.403C569.427 252.211 566.579 254.42 561.927 254.42C559.311 254.42 556.869 253.752 555.822 252.676C555.328 251.455 555.735 249.013 556.491 247.734H556.753C556.52 250.757 558.758 253.258 562.247 253.199C564.776 253.17 566.259 251.775 566.259 249.943C566.259 248.752 565.503 247.967 563.933 246.949L558.875 243.577C556.869 242.24 555.88 240.466 556.084 238.373C556.346 235.35 558.526 233.257 562.218 233.257C563.148 233.257 564.834 233.402 566.172 233.577H568.003L567.596 237.85H567.334C567.334 235.815 565.677 234.507 563.235 234.507C560.939 234.507 559.485 235.728 559.427 237.298C559.34 238.431 560.241 239.216 561.462 240.001ZM591.699 245.554H591.932L592.223 250.554C590.915 252.705 588.444 254.449 584.054 254.449C576.902 254.42 572.251 250.467 572.251 243.839C572.251 237.327 576.757 233.286 584.141 233.286C587.223 233.286 589.723 233.984 591.38 234.856L591.438 239.827H591.176C590.13 236.019 587.63 234.507 584.432 234.507C579.809 234.507 576.99 238.053 576.99 243.751C576.99 249.507 579.722 253.083 584.054 253.199C588.531 253.199 590.798 251.252 591.699 245.554ZM603.599 253.723V254.013H594.762V253.723H595.14C596.157 253.723 596.971 252.909 597 251.92V235.786C596.971 234.768 596.157 233.954 595.14 233.954H594.762V233.664H603.599V233.954H603.222C602.204 233.954 601.39 234.768 601.361 235.786V251.92C601.39 252.909 602.204 253.723 603.222 253.723H603.599Z" fill="#C6A863"/>
</g>
<g clip-path="url(#clip0_311_249)">
<path d="M447.644 221.977H327.326V223.144H447.644V221.977Z" fill="#C6A863"/>
<path d="M447.69 223.189H327.28V221.931H447.69V223.189ZM327.372 223.097H447.598V222.023H327.372V223.097Z" fill="#C6A863"/>
<path d="M609.87 221.977H489.552V223.144H609.87V221.977Z" fill="#C6A863"/>
<path d="M609.915 223.189H489.505V221.931H609.915V223.189ZM489.597 223.097H609.823V222.023H489.597V223.097Z" fill="#C6A863"/>
<path fill-rule="evenodd" clip-rule="evenodd" d="M450.209 226.023C451.506 226.023 452.637 225.304 453.227 224.24C454.534 223.959 456.041 223.799 457.645 223.799C457.9 223.799 458.153 223.802 458.404 223.811C458.849 224.639 459.721 225.202 460.723 225.202C462.176 225.202 463.356 224.019 463.356 222.56C463.356 221.101 462.176 219.917 460.723 219.917C459.719 219.917 458.848 220.48 458.404 221.309C458.153 221.317 457.901 221.321 457.645 221.321C456.041 221.321 454.533 221.161 453.226 220.879L453.239 220.902C452.653 219.826 451.516 219.097 450.209 219.097C448.304 219.097 446.759 220.648 446.759 222.561C446.759 224.473 448.304 226.024 450.209 226.024V226.023Z" fill="#C6A863"/>
<path d="M450.209 226.069C448.282 226.069 446.713 224.495 446.713 222.56C446.713 220.624 448.281 219.051 450.209 219.051C451.473 219.051 452.636 219.735 453.257 220.838C454.59 221.124 456.107 221.276 457.645 221.276C457.89 221.276 458.136 221.272 458.375 221.264C458.848 220.405 459.744 219.872 460.723 219.872C462.2 219.872 463.401 221.078 463.401 222.56C463.401 224.043 462.2 225.249 460.723 225.249C459.744 225.249 458.848 224.716 458.375 223.856C458.137 223.849 457.891 223.845 457.645 223.845C456.108 223.845 454.591 223.996 453.257 224.282C452.635 225.385 451.469 226.069 450.209 226.069ZM450.209 219.143C448.332 219.143 446.805 220.675 446.805 222.56C446.805 224.446 448.331 225.978 450.209 225.978C451.444 225.978 452.584 225.304 453.187 224.219L453.197 224.201L453.217 224.196C454.562 223.906 456.093 223.753 457.645 223.753C457.901 223.753 458.157 223.757 458.405 223.765H458.431L458.444 223.789C458.896 224.632 459.77 225.157 460.723 225.157C462.15 225.157 463.31 223.992 463.31 222.56C463.31 221.129 462.15 219.964 460.723 219.964C459.769 219.964 458.896 220.488 458.444 221.331L458.431 221.354H458.405C458.155 221.362 457.9 221.367 457.645 221.367C456.093 221.367 454.562 221.214 453.217 220.924L453.219 220.914L453.199 220.925C453.199 220.925 453.199 220.925 453.199 220.924L453.197 220.92C452.598 219.824 451.454 219.144 450.209 219.144V219.143Z" fill="#C6A863"/>
<path fill-rule="evenodd" clip-rule="evenodd" d="M486.986 226.024C485.69 226.024 484.559 225.304 483.969 224.241C482.662 223.959 481.155 223.799 479.551 223.799C479.296 223.799 479.042 223.803 478.792 223.811C478.347 224.639 477.475 225.203 476.473 225.203C475.02 225.203 473.84 224.019 473.84 222.56C473.84 221.101 475.02 219.917 476.473 219.917C477.477 219.917 478.348 220.481 478.792 221.309C479.042 221.317 479.295 221.321 479.551 221.321C481.155 221.321 482.663 221.161 483.97 220.879L483.957 220.902C484.543 219.826 485.68 219.097 486.986 219.097C488.892 219.097 490.437 220.648 490.437 222.561C490.437 224.474 488.892 226.024 486.986 226.024V226.024Z" fill="#C6A863"/>
<path d="M486.986 226.069C485.726 226.069 484.56 225.384 483.939 224.282C482.605 223.996 481.088 223.845 479.55 223.845C479.305 223.845 479.059 223.849 478.821 223.856C478.348 224.716 477.451 225.249 476.473 225.249C474.996 225.249 473.794 224.043 473.794 222.56C473.794 221.078 474.996 219.872 476.473 219.872C477.451 219.872 478.348 220.405 478.821 221.264C479.061 221.272 479.306 221.276 479.55 221.276C481.089 221.276 482.607 221.125 483.94 220.838C484.561 219.735 485.724 219.051 486.987 219.051C488.915 219.051 490.484 220.625 490.484 222.56C490.484 224.496 488.916 226.07 486.987 226.07L486.986 226.069ZM479.55 223.752C481.102 223.752 482.633 223.905 483.979 224.195L483.999 224.2L484.009 224.218C484.611 225.303 485.752 225.977 486.986 225.977C488.864 225.977 490.391 224.445 490.391 222.56C490.391 220.674 488.864 219.142 486.986 219.142C485.74 219.142 484.595 219.825 483.997 220.923L483.977 220.912L483.979 220.922C482.634 221.212 481.103 221.365 479.55 221.365C479.296 221.365 479.041 221.361 478.791 221.353H478.765L478.752 221.329C478.3 220.486 477.426 219.962 476.473 219.962C475.047 219.962 473.886 221.126 473.886 222.559C473.886 223.991 475.047 225.155 476.473 225.155C477.427 225.155 478.3 224.631 478.752 223.787L478.765 223.764H478.791C479.039 223.755 479.295 223.752 479.55 223.752V223.752Z" fill="#C6A863"/>
<path d="M468.598 219.313L465.363 222.561L468.598 225.809L471.834 222.561L468.598 219.313Z" fill="#C6A863"/>
<path d="M468.598 225.873L465.297 222.561L468.598 219.248L471.898 222.561L468.598 225.873ZM465.427 222.561L468.598 225.743L471.769 222.561L468.598 219.378L465.427 222.561Z" fill="#C6A863"/>
</g>
<defs>
<filter id="filter0_i_311_249" x="329.472" y="193.337" width="279.593" height="27.3656" filterUnits="userSpaceOnUse" color-interpolation-filters="sRGB">
<feFlood flood-opacity="0" result="BackgroundImageFix"/>
<feBlend mode="normal" in="SourceGraphic" in2="BackgroundImageFix" result="shape"/>
<feColorMatrix in="SourceAlpha" type="matrix" values="0 0 0 0 0 0 0 0 0 0 0 0 0 0 0 0 0 0 127 0" result="hardAlpha"/>
<feOffset dy="3.2301"/>
<feGaussianBlur stdDeviation="1.61505"/>
<feComposite in2="hardAlpha" operator="arithmetic" k2="-1" k3="1"/>
<feColorMatrix type="matrix" values="0 0 0 0 0 0 0 0 0 0 0 0 0 0 0 0 0 0 0.25 0"/>
<feBlend mode="normal" in2="shape" result="effect1_innerShadow_311_249"/>
</filter>
<filter id="filter1_i_311_249" x="331.355" y="226.89" width="275.474" height="30.9347" filterUnits="userSpaceOnUse" color-interpolation-filters="sRGB">
<feFlood flood-opacity="0" result="BackgroundImageFix"/>
<feBlend mode="normal" in="SourceGraphic" in2="BackgroundImageFix" result="shape"/>
<feColorMatrix in="SourceAlpha" type="matrix" values="0 0 0 0 0 0 0 0 0 0 0 0 0 0 0 0 0 0 127 0" result="hardAlpha"/>
<feOffset dx="3.2301" dy="3.2301"/>
<feGaussianBlur stdDeviation="4.03763"/>
<feComposite in2="hardAlpha" operator="arithmetic" k2="-1" k3="1"/>
<feColorMatrix type="matrix" values="0 0 0 0 0 0 0 0 0 0 0 0 0 0 0 0 0 0 0.2 0"/>
<feBlend mode="normal" in2="shape" result="effect1_innerShadow_311_249"/>
</filter>
<clipPath id="clip0_311_249">
<rect width="282.634" height="7.01843" fill="white" transform="translate(327.282 219.051)"/>
</clipPath>
</defs>
</svg>
