<svg width="591" height="523" viewBox="0 0 591 523" fill="none" xmlns="http://www.w3.org/2000/svg">
<path fill-rule="evenodd" clip-rule="evenodd" d="M95.9943 643.153C188.962 675.824 295.98 686.799 374.103 652.588C446.336 620.955 440.723 533.376 480.989 474.557C513.361 427.269 575.866 398.649 586.395 342.481C598.06 280.255 584.302 211.057 541.743 150.472C497.169 87.018 430.55 22.1993 348.262 3.48329C268.506 -14.6569 215.277 51.6639 138.249 58.699C53.9691 66.3965 -60.9533 -1.36051 -116.749 45.9537C-171.408 92.304 -88.7326 184.56 -92.3905 254.278C-96.4424 331.507 -176.436 395.189 -139.115 472.231C-100.448 552.048 0.394092 609.557 95.9943 643.153Z" fill="#2E3946"/>
</svg>
