<svg width="673" height="524" viewBox="0 0 673 524" fill="none" xmlns="http://www.w3.org/2000/svg">
<path fill-rule="evenodd" clip-rule="evenodd" d="M577.008 644.153C484.04 676.824 377.022 687.799 298.899 653.588C226.666 621.955 232.28 534.376 192.014 475.557C159.642 428.269 97.1368 399.649 86.6075 343.481C74.9424 281.255 88.7007 212.057 131.26 151.472C175.833 88.018 242.452 23.1993 324.74 4.48329C404.497 -13.6569 457.725 52.6639 534.753 59.699C619.033 67.3965 733.956 -0.360512 789.752 46.9537C844.411 93.304 761.735 185.56 765.393 255.278C769.445 332.507 849.439 396.189 812.117 473.231C773.451 553.048 672.608 610.557 577.008 644.153Z" fill="#C5EBC3"/>
<path fill-rule="evenodd" clip-rule="evenodd" d="M566.112 608.332C484.815 636.901 391.232 646.498 322.916 616.581C259.75 588.92 264.659 512.335 229.448 460.9C201.14 419.548 146.482 394.521 137.274 345.404C127.073 290.99 139.104 230.478 176.321 177.499C215.299 122.011 273.555 65.3288 345.513 48.9623C415.257 33.0993 461.803 91.0945 529.162 97.2465C602.862 103.978 703.358 44.7266 752.149 86.1012C799.947 126.633 727.65 207.307 730.848 268.274C734.392 335.807 804.344 391.496 771.707 458.866C737.895 528.663 649.711 578.953 566.112 608.332Z" fill="white"/>
<path d="M413.538 229.942V215.185H419.062C420.312 215.185 421.388 215.389 422.287 215.796C423.186 216.19 423.875 216.766 424.353 217.525C424.845 218.27 425.091 219.176 425.091 220.245C425.091 221.285 424.845 222.184 424.353 222.943C423.875 223.688 423.186 224.264 422.287 224.671C421.388 225.079 420.312 225.283 419.062 225.283H414.403L415.098 224.545V229.942H413.538ZM415.098 224.671L414.403 223.913H419.019C420.495 223.913 421.612 223.596 422.371 222.964C423.144 222.317 423.531 221.411 423.531 220.245C423.531 219.064 423.144 218.151 422.371 217.504C421.612 216.858 420.495 216.534 419.019 216.534H414.403L415.098 215.796V224.671ZM428.464 229.942V215.185H433.987C435.238 215.185 436.313 215.389 437.212 215.796C438.112 216.19 438.8 216.766 439.278 217.525C439.77 218.27 440.016 219.176 440.016 220.245C440.016 221.285 439.77 222.184 439.278 222.943C438.8 223.688 438.112 224.264 437.212 224.671C436.313 225.065 435.238 225.262 433.987 225.262H429.328L430.024 224.545V229.942H428.464ZM438.54 229.942L434.746 224.587H436.432L440.248 229.942H438.54ZM430.024 224.671L429.328 223.934H433.945C435.42 223.934 436.538 223.61 437.297 222.964C438.07 222.317 438.456 221.411 438.456 220.245C438.456 219.064 438.07 218.151 437.297 217.504C436.538 216.858 435.42 216.534 433.945 216.534H429.328L430.024 215.796V224.671ZM441.337 229.942L448.083 215.185H449.622L456.367 229.942H454.723L448.525 216.092H449.158L442.96 229.942H441.337ZM443.993 226L444.457 224.735H453.037L453.5 226H443.993ZM465.011 230.068C463.901 230.068 462.875 229.885 461.933 229.52C460.992 229.141 460.177 228.614 459.488 227.939C458.799 227.264 458.258 226.47 457.865 225.557C457.485 224.643 457.296 223.646 457.296 222.563C457.296 221.481 457.485 220.483 457.865 219.57C458.258 218.656 458.799 217.862 459.488 217.188C460.191 216.513 461.013 215.993 461.954 215.628C462.896 215.248 463.922 215.059 465.032 215.059C466.1 215.059 467.105 215.241 468.047 215.607C468.988 215.958 469.782 216.492 470.429 217.209L469.438 218.2C468.834 217.581 468.166 217.139 467.435 216.872C466.705 216.591 465.918 216.45 465.074 216.45C464.189 216.45 463.367 216.605 462.608 216.914C461.849 217.209 461.188 217.638 460.626 218.2C460.064 218.748 459.621 219.394 459.298 220.139C458.989 220.87 458.834 221.678 458.834 222.563C458.834 223.449 458.989 224.264 459.298 225.009C459.621 225.74 460.064 226.386 460.626 226.948C461.188 227.496 461.849 227.925 462.608 228.234C463.367 228.529 464.189 228.677 465.074 228.677C465.918 228.677 466.705 228.536 467.435 228.255C468.166 227.974 468.834 227.524 469.438 226.906L470.429 227.897C469.782 228.614 468.988 229.155 468.047 229.52C467.105 229.885 466.093 230.068 465.011 230.068ZM479.896 230.068C478.786 230.068 477.753 229.885 476.797 229.52C475.856 229.141 475.034 228.614 474.331 227.939C473.642 227.25 473.101 226.456 472.708 225.557C472.328 224.643 472.139 223.646 472.139 222.563C472.139 221.481 472.328 220.49 472.708 219.591C473.101 218.678 473.642 217.883 474.331 217.209C475.034 216.52 475.856 215.993 476.797 215.628C477.739 215.248 478.772 215.059 479.896 215.059C481.006 215.059 482.032 215.248 482.974 215.628C483.916 215.993 484.731 216.513 485.419 217.188C486.122 217.862 486.663 218.656 487.043 219.57C487.436 220.483 487.633 221.481 487.633 222.563C487.633 223.646 487.436 224.643 487.043 225.557C486.663 226.47 486.122 227.264 485.419 227.939C484.731 228.614 483.916 229.141 482.974 229.52C482.032 229.885 481.006 230.068 479.896 230.068ZM479.896 228.677C480.782 228.677 481.597 228.529 482.342 228.234C483.101 227.925 483.754 227.496 484.302 226.948C484.864 226.386 485.3 225.74 485.609 225.009C485.918 224.264 486.073 223.449 486.073 222.563C486.073 221.678 485.918 220.87 485.609 220.139C485.3 219.394 484.864 218.748 484.302 218.2C483.754 217.638 483.101 217.209 482.342 216.914C481.597 216.605 480.782 216.45 479.896 216.45C479.011 216.45 478.189 216.605 477.43 216.914C476.671 217.209 476.01 217.638 475.448 218.2C474.9 218.748 474.464 219.394 474.141 220.139C473.832 220.87 473.677 221.678 473.677 222.563C473.677 223.435 473.832 224.243 474.141 224.988C474.464 225.733 474.9 226.386 475.448 226.948C476.01 227.496 476.671 227.925 477.43 228.234C478.189 228.529 479.011 228.677 479.896 228.677ZM494.049 229.942L489.074 215.185H490.676L495.335 229.077H494.534L499.34 215.185H500.774L505.517 229.077H504.758L509.459 215.185H510.956L505.981 229.942H504.336L499.804 216.766H500.226L495.672 229.942H494.049ZM513.816 229.942V215.185H515.102L525.284 228.002H524.609V215.185H526.148V229.942H524.862L514.701 217.125H515.376V229.942H513.816ZM530.965 229.942V215.185H532.525V229.942H530.965ZM534.965 229.942L541.711 215.185H543.25L549.995 229.942H548.351L542.153 216.092H542.786L536.588 229.942H534.965ZM537.621 226L538.085 224.735H546.665L547.128 226H537.621ZM563.898 230.068C562.015 230.068 560.533 229.527 559.45 228.445C558.368 227.363 557.827 225.761 557.827 223.639V215.185H559.387V223.575C559.387 225.318 559.781 226.604 560.568 227.433C561.355 228.262 562.465 228.677 563.898 228.677C565.346 228.677 566.463 228.262 567.25 227.433C568.037 226.604 568.431 225.318 568.431 223.575V215.185H569.949V223.639C569.949 225.761 569.408 227.363 568.325 228.445C567.257 229.527 565.782 230.068 563.898 230.068ZM578.718 230.068C577.622 230.068 576.568 229.892 575.556 229.541C574.558 229.176 573.785 228.712 573.237 228.15L573.848 226.948C574.368 227.454 575.064 227.883 575.935 228.234C576.821 228.571 577.748 228.74 578.718 228.74C579.646 228.74 580.397 228.628 580.974 228.403C581.564 228.164 581.993 227.848 582.26 227.454C582.541 227.061 582.681 226.625 582.681 226.147C582.681 225.571 582.513 225.107 582.175 224.756C581.852 224.404 581.423 224.13 580.889 223.934C580.355 223.723 579.765 223.54 579.119 223.386C578.472 223.231 577.826 223.069 577.179 222.901C576.533 222.718 575.935 222.479 575.387 222.184C574.853 221.889 574.418 221.502 574.08 221.025C573.757 220.533 573.595 219.893 573.595 219.106C573.595 218.375 573.785 217.708 574.165 217.103C574.558 216.485 575.155 215.993 575.956 215.628C576.757 215.248 577.783 215.059 579.034 215.059C579.863 215.059 580.686 215.178 581.501 215.417C582.316 215.642 583.018 215.958 583.609 216.366L583.082 217.609C582.449 217.188 581.775 216.879 581.058 216.682C580.355 216.485 579.674 216.387 579.013 216.387C578.128 216.387 577.397 216.506 576.821 216.745C576.245 216.984 575.816 217.307 575.535 217.715C575.268 218.108 575.134 218.558 575.134 219.064C575.134 219.64 575.296 220.104 575.619 220.455C575.956 220.807 576.392 221.081 576.926 221.277C577.474 221.474 578.072 221.65 578.718 221.804C579.364 221.959 580.004 222.128 580.636 222.31C581.283 222.493 581.873 222.732 582.407 223.027C582.955 223.308 583.391 223.688 583.714 224.166C584.051 224.643 584.22 225.269 584.22 226.042C584.22 226.758 584.023 227.426 583.63 228.044C583.236 228.649 582.632 229.141 581.817 229.52C581.016 229.885 579.983 230.068 578.718 230.068ZM587.724 229.942V215.185H589.284V228.592H597.548V229.942H587.724ZM586.312 224.482L585.616 223.596L591.772 218.959L592.489 219.865L586.312 224.482ZM605.813 230.068C603.93 230.068 602.447 229.527 601.365 228.445C600.283 227.363 599.742 225.761 599.742 223.639V215.185H601.302V223.575C601.302 225.318 601.695 226.604 602.482 227.433C603.269 228.262 604.379 228.677 605.813 228.677C607.26 228.677 608.378 228.262 609.165 227.433C609.952 226.604 610.345 225.318 610.345 223.575V215.185H611.863V223.639C611.863 225.761 611.322 227.363 610.24 228.445C609.172 229.527 607.696 230.068 605.813 230.068ZM623.036 230.068C621.911 230.068 620.871 229.885 619.916 229.52C618.974 229.141 618.152 228.614 617.449 227.939C616.761 227.264 616.219 226.47 615.826 225.557C615.447 224.643 615.257 223.646 615.257 222.563C615.257 221.481 615.447 220.483 615.826 219.57C616.219 218.656 616.768 217.862 617.47 217.188C618.173 216.513 618.995 215.993 619.937 215.628C620.892 215.248 621.932 215.059 623.057 215.059C624.181 215.059 625.207 215.234 626.134 215.586C627.076 215.937 627.877 216.471 628.538 217.188L627.568 218.179C626.95 217.56 626.268 217.118 625.523 216.851C624.778 216.584 623.977 216.45 623.12 216.45C622.206 216.45 621.363 216.605 620.59 216.914C619.831 217.209 619.164 217.638 618.588 218.2C618.025 218.748 617.583 219.394 617.259 220.139C616.95 220.87 616.796 221.678 616.796 222.563C616.796 223.435 616.95 224.243 617.259 224.988C617.583 225.733 618.025 226.386 618.588 226.948C619.164 227.496 619.831 227.925 620.59 228.234C621.363 228.529 622.199 228.677 623.099 228.677C623.942 228.677 624.736 228.55 625.481 228.297C626.24 228.044 626.936 227.616 627.568 227.011L628.453 228.192C627.751 228.81 626.928 229.281 625.987 229.604C625.045 229.914 624.062 230.068 623.036 230.068ZM626.957 228.002V222.563H628.453V228.192L626.957 228.002ZM413.612 261.942V243.496H421.201C422.835 243.496 424.232 243.76 425.391 244.287C426.568 244.814 427.473 245.569 428.105 246.553C428.738 247.536 429.054 248.705 429.054 250.057C429.054 251.41 428.738 252.578 428.105 253.562C427.473 254.528 426.568 255.275 425.391 255.802C424.232 256.311 422.835 256.566 421.201 256.566H415.51L417.038 255.011V261.942H413.612ZM425.681 261.942L421.017 255.249H424.68L429.37 261.942H425.681ZM417.038 255.38L415.51 253.747H421.043C422.554 253.747 423.687 253.422 424.442 252.772C425.215 252.122 425.602 251.217 425.602 250.057C425.602 248.88 425.215 247.976 424.442 247.343C423.687 246.711 422.554 246.395 421.043 246.395H415.51L417.038 244.708V255.38ZM437.161 261.942V254.642L437.926 256.751L429.915 243.496H433.578L440.007 254.168H437.952L444.434 243.496H447.807L439.797 256.751L440.587 254.642V261.942H437.161ZM449.819 261.942V243.496H452.639L464.207 257.699H462.81V243.496H466.209V261.942H463.39L451.822 247.739H453.218V261.942H449.819ZM474.209 257.594L474.024 253.536L483.695 243.496H487.542L479.505 252.034L477.608 254.115L474.209 257.594ZM471.152 261.942V243.496H474.577V261.942H471.152ZM484.011 261.942L476.949 253.536L479.215 251.032L488.016 261.942H484.011ZM498.023 262.205C495.494 262.205 493.508 261.494 492.068 260.071C490.645 258.648 489.933 256.592 489.933 253.905V243.496H493.359V253.773C493.359 255.67 493.763 257.049 494.571 257.91C495.397 258.771 496.556 259.201 498.05 259.201C499.543 259.201 500.693 258.771 501.502 257.91C502.31 257.049 502.714 255.67 502.714 253.773V243.496H506.087V253.905C506.087 256.592 505.366 258.648 503.926 260.071C502.503 261.494 500.535 262.205 498.023 262.205ZM518.167 261.942V243.496H525.756C527.389 243.496 528.786 243.76 529.945 244.287C531.122 244.814 532.027 245.569 532.66 246.553C533.292 247.536 533.608 248.705 533.608 250.057C533.608 251.41 533.292 252.578 532.66 253.562C532.027 254.546 531.122 255.301 529.945 255.828C528.786 256.355 527.389 256.619 525.756 256.619H520.064L521.592 255.011V261.942H518.167ZM521.592 255.38L520.064 253.72H525.598C527.108 253.72 528.241 253.404 528.997 252.772C529.77 252.122 530.156 251.217 530.156 250.057C530.156 248.88 529.77 247.976 528.997 247.343C528.241 246.711 527.108 246.395 525.598 246.395H520.064L521.592 244.708V255.38ZM537.029 261.942V243.496H544.618C546.252 243.496 547.649 243.76 548.808 244.287C549.985 244.814 550.89 245.569 551.522 246.553C552.155 247.536 552.471 248.705 552.471 250.057C552.471 251.41 552.155 252.578 551.522 253.562C550.89 254.528 549.985 255.275 548.808 255.802C547.649 256.311 546.252 256.566 544.618 256.566H538.926L540.455 255.011V261.942H537.029ZM549.098 261.942L544.434 255.249H548.096L552.787 261.942H549.098ZM540.455 255.38L538.926 253.747H544.46C545.971 253.747 547.104 253.422 547.859 252.772C548.632 252.122 549.019 251.217 549.019 250.057C549.019 248.88 548.632 247.976 547.859 247.343C547.104 246.711 545.971 246.395 544.46 246.395H538.926L540.455 244.708V255.38ZM553.695 261.942L561.995 243.496H565.368L573.695 261.942H570.111L562.97 245.314H564.34L557.226 261.942H553.695ZM557.515 257.673L558.438 254.985H568.398L569.321 257.673H557.515ZM584.321 262.205C582.916 262.205 581.607 261.977 580.395 261.52C579.2 261.046 578.155 260.387 577.259 259.544C576.381 258.683 575.696 257.673 575.204 256.513C574.712 255.354 574.466 254.089 574.466 252.719C574.466 251.349 574.712 250.084 575.204 248.924C575.696 247.765 576.389 246.764 577.285 245.92C578.181 245.06 579.227 244.401 580.421 243.944C581.616 243.47 582.925 243.233 584.347 243.233C585.858 243.233 587.237 243.496 588.485 244.023C589.732 244.532 590.786 245.297 591.647 246.316L589.433 248.397C588.766 247.677 588.019 247.141 587.193 246.79C586.368 246.421 585.472 246.237 584.506 246.237C583.539 246.237 582.652 246.395 581.844 246.711C581.054 247.027 580.36 247.475 579.762 248.055C579.183 248.634 578.726 249.32 578.392 250.11C578.076 250.901 577.918 251.77 577.918 252.719C577.918 253.667 578.076 254.537 578.392 255.328C578.726 256.118 579.183 256.803 579.762 257.383C580.36 257.963 581.054 258.411 581.844 258.727C582.652 259.043 583.539 259.201 584.506 259.201C585.472 259.201 586.368 259.025 587.193 258.674C588.019 258.305 588.766 257.752 589.433 257.014L591.647 259.122C590.786 260.123 589.732 260.888 588.485 261.415C587.237 261.942 585.849 262.205 584.321 262.205ZM599.23 261.942V254.642L599.994 256.751L591.983 243.496H595.646L602.076 254.168H600.02L606.503 243.496H609.876L601.865 256.751L602.655 254.642V261.942H599.23Z" fill="#002500"/>
<g clip-path="url(#clip0_311_245)">
<mask id="mask0_311_245" style="mask-type:luminance" maskUnits="userSpaceOnUse" x="180" y="181" width="226" height="83">
<path d="M405.112 181H180V263.533H405.112V181Z" fill="white"/>
</mask>
<g mask="url(#mask0_311_245)">
<path d="M218.443 182.841L203.856 182.686H187.455V265.032H203.856V237.928H218.443C232.509 237.928 243.951 226.436 243.951 212.309V208.46C243.951 194.333 232.509 182.841 218.443 182.841ZM227.859 212.309C227.859 217.522 223.633 221.766 218.443 221.766H203.856V199.003H218.443C223.633 199.003 227.859 203.247 227.859 208.46V212.309Z" fill="#002500"/>
<path d="M273.924 263.908C256.326 263.908 242.003 249.529 242.003 231.849V182.311H257.96V231.856C257.96 240.692 265.118 247.882 273.917 247.882C282.716 247.882 289.874 240.692 289.874 231.856V182.311H305.832V231.856C305.832 249.529 291.514 263.914 273.911 263.914L273.924 263.908Z" fill="#C5EBC3"/>
<path d="M322.528 198.983C327.622 198.983 331.771 203.227 331.771 208.44V212.29C331.771 217.503 327.622 221.747 322.528 221.747H308.211V237.908H322.528C336.337 237.908 347.567 226.417 347.567 212.29V208.44C347.567 194.313 336.337 182.822 322.528 182.822H308.211V198.932L322.528 198.983Z" fill="#002500"/>
<path d="M328.515 224.753L314.301 232.971L340.612 278.87L354.826 270.651L328.515 224.753Z" fill="#002500"/>
<path d="M375.089 182.57L360.501 182.415H344.1V264.761H360.501V237.656H375.089C389.155 237.656 400.597 226.165 400.597 212.038V208.188C400.597 194.061 389.155 182.57 375.089 182.57ZM384.505 212.038C384.505 217.251 380.279 221.495 375.089 221.495H360.501V198.731H375.089C380.279 198.731 384.505 202.975 384.505 208.188V212.038Z" fill="#002500"/>
</g>
</g>
<circle cx="461.206" cy="504.283" r="3.20586" transform="rotate(-90 461.206 504.283)" fill="url(#paint0_linear_311_245)"/>
<circle cx="461.206" cy="457.264" r="3.20586" transform="rotate(-90 461.206 457.264)" fill="url(#paint1_linear_311_245)"/>
<circle cx="461.206" cy="410.245" r="3.20586" transform="rotate(-90 461.206 410.245)" fill="url(#paint2_linear_311_245)"/>
<circle cx="461.206" cy="363.225" r="3.20586" transform="rotate(-90 461.206 363.225)" fill="url(#paint3_linear_311_245)"/>
<circle cx="461.206" cy="316.206" r="3.20586" transform="rotate(-90 461.206 316.206)" fill="url(#paint4_linear_311_245)"/>
<circle cx="508.226" cy="504.283" r="3.20586" transform="rotate(-90 508.226 504.283)" fill="url(#paint5_linear_311_245)"/>
<circle cx="508.226" cy="457.264" r="3.20586" transform="rotate(-90 508.226 457.264)" fill="url(#paint6_linear_311_245)"/>
<circle cx="508.226" cy="410.245" r="3.20586" transform="rotate(-90 508.226 410.245)" fill="url(#paint7_linear_311_245)"/>
<circle cx="508.226" cy="363.225" r="3.20586" transform="rotate(-90 508.226 363.225)" fill="url(#paint8_linear_311_245)"/>
<circle cx="508.226" cy="316.206" r="3.20586" transform="rotate(-90 508.226 316.206)" fill="url(#paint9_linear_311_245)"/>
<circle cx="555.244" cy="504.283" r="3.20586" transform="rotate(-90 555.244 504.283)" fill="url(#paint10_linear_311_245)"/>
<circle cx="555.244" cy="457.264" r="3.20586" transform="rotate(-90 555.244 457.264)" fill="url(#paint11_linear_311_245)"/>
<circle cx="555.244" cy="410.245" r="3.20586" transform="rotate(-90 555.244 410.245)" fill="url(#paint12_linear_311_245)"/>
<circle cx="555.244" cy="363.225" r="3.20586" transform="rotate(-90 555.244 363.225)" fill="url(#paint13_linear_311_245)"/>
<circle cx="555.244" cy="316.206" r="3.20586" transform="rotate(-90 555.244 316.206)" fill="url(#paint14_linear_311_245)"/>
<circle cx="602.263" cy="504.283" r="3.20586" transform="rotate(-90 602.263 504.283)" fill="url(#paint15_linear_311_245)"/>
<circle cx="602.263" cy="457.264" r="3.20586" transform="rotate(-90 602.263 457.264)" fill="url(#paint16_linear_311_245)"/>
<circle cx="602.263" cy="410.245" r="3.20586" transform="rotate(-90 602.263 410.245)" fill="url(#paint17_linear_311_245)"/>
<circle cx="602.263" cy="363.225" r="3.20586" transform="rotate(-90 602.263 363.225)" fill="url(#paint18_linear_311_245)"/>
<circle cx="602.263" cy="316.206" r="3.20586" transform="rotate(-90 602.263 316.206)" fill="url(#paint19_linear_311_245)"/>
<circle cx="649.283" cy="504.283" r="3.20586" transform="rotate(-90 649.283 504.283)" fill="url(#paint20_linear_311_245)"/>
<circle cx="649.283" cy="457.264" r="3.20586" transform="rotate(-90 649.283 457.264)" fill="url(#paint21_linear_311_245)"/>
<circle cx="649.283" cy="410.245" r="3.20586" transform="rotate(-90 649.283 410.245)" fill="url(#paint22_linear_311_245)"/>
<circle cx="649.283" cy="363.225" r="3.20586" transform="rotate(-90 649.283 363.225)" fill="url(#paint23_linear_311_245)"/>
<circle cx="649.283" cy="316.206" r="3.20586" transform="rotate(-90 649.283 316.206)" fill="url(#paint24_linear_311_245)"/>
<circle cx="377" cy="351" r="38" fill="#002500"/>
<circle cx="377" cy="435" r="38" fill="#C5EBC3"/>
<circle cx="455" cy="351" r="31" fill="#002500" fill-opacity="0.5"/>
<circle cx="455" cy="435" r="31" fill="#E2F5E1"/>
<defs>
<linearGradient id="paint0_linear_311_245" x1="461.206" y1="501.077" x2="461.206" y2="507.488" gradientUnits="userSpaceOnUse">
<stop stop-color="#C5EBC3"/>
<stop offset="1" stop-color="white"/>
</linearGradient>
<linearGradient id="paint1_linear_311_245" x1="461.206" y1="454.058" x2="461.206" y2="460.47" gradientUnits="userSpaceOnUse">
<stop stop-color="#C5EBC3"/>
<stop offset="1" stop-color="white"/>
</linearGradient>
<linearGradient id="paint2_linear_311_245" x1="461.206" y1="407.039" x2="461.206" y2="413.45" gradientUnits="userSpaceOnUse">
<stop stop-color="#C5EBC3"/>
<stop offset="1" stop-color="white"/>
</linearGradient>
<linearGradient id="paint3_linear_311_245" x1="461.206" y1="360.019" x2="461.206" y2="366.431" gradientUnits="userSpaceOnUse">
<stop stop-color="#C5EBC3"/>
<stop offset="1" stop-color="white"/>
</linearGradient>
<linearGradient id="paint4_linear_311_245" x1="461.206" y1="313" x2="461.206" y2="319.412" gradientUnits="userSpaceOnUse">
<stop stop-color="#C5EBC3"/>
<stop offset="1" stop-color="white"/>
</linearGradient>
<linearGradient id="paint5_linear_311_245" x1="508.226" y1="501.077" x2="508.226" y2="507.489" gradientUnits="userSpaceOnUse">
<stop stop-color="#C5EBC3"/>
<stop offset="1" stop-color="white"/>
</linearGradient>
<linearGradient id="paint6_linear_311_245" x1="508.226" y1="454.058" x2="508.226" y2="460.47" gradientUnits="userSpaceOnUse">
<stop stop-color="#C5EBC3"/>
<stop offset="1" stop-color="white"/>
</linearGradient>
<linearGradient id="paint7_linear_311_245" x1="508.226" y1="407.039" x2="508.226" y2="413.45" gradientUnits="userSpaceOnUse">
<stop stop-color="#C5EBC3"/>
<stop offset="1" stop-color="white"/>
</linearGradient>
<linearGradient id="paint8_linear_311_245" x1="508.226" y1="360.019" x2="508.226" y2="366.431" gradientUnits="userSpaceOnUse">
<stop stop-color="#C5EBC3"/>
<stop offset="1" stop-color="white"/>
</linearGradient>
<linearGradient id="paint9_linear_311_245" x1="508.226" y1="313" x2="508.226" y2="319.412" gradientUnits="userSpaceOnUse">
<stop stop-color="#C5EBC3"/>
<stop offset="1" stop-color="white"/>
</linearGradient>
<linearGradient id="paint10_linear_311_245" x1="555.244" y1="501.077" x2="555.244" y2="507.489" gradientUnits="userSpaceOnUse">
<stop stop-color="#C5EBC3"/>
<stop offset="1" stop-color="white"/>
</linearGradient>
<linearGradient id="paint11_linear_311_245" x1="555.244" y1="454.058" x2="555.244" y2="460.47" gradientUnits="userSpaceOnUse">
<stop stop-color="#C5EBC3"/>
<stop offset="1" stop-color="white"/>
</linearGradient>
<linearGradient id="paint12_linear_311_245" x1="555.244" y1="407.039" x2="555.244" y2="413.45" gradientUnits="userSpaceOnUse">
<stop stop-color="#C5EBC3"/>
<stop offset="1" stop-color="white"/>
</linearGradient>
<linearGradient id="paint13_linear_311_245" x1="555.244" y1="360.019" x2="555.244" y2="366.431" gradientUnits="userSpaceOnUse">
<stop stop-color="#C5EBC3"/>
<stop offset="1" stop-color="white"/>
</linearGradient>
<linearGradient id="paint14_linear_311_245" x1="555.244" y1="313" x2="555.244" y2="319.412" gradientUnits="userSpaceOnUse">
<stop stop-color="#C5EBC3"/>
<stop offset="1" stop-color="white"/>
</linearGradient>
<linearGradient id="paint15_linear_311_245" x1="602.263" y1="501.077" x2="602.263" y2="507.489" gradientUnits="userSpaceOnUse">
<stop stop-color="#C5EBC3"/>
<stop offset="1" stop-color="white"/>
</linearGradient>
<linearGradient id="paint16_linear_311_245" x1="602.263" y1="454.058" x2="602.263" y2="460.47" gradientUnits="userSpaceOnUse">
<stop stop-color="#C5EBC3"/>
<stop offset="1" stop-color="white"/>
</linearGradient>
<linearGradient id="paint17_linear_311_245" x1="602.263" y1="407.039" x2="602.263" y2="413.45" gradientUnits="userSpaceOnUse">
<stop stop-color="#C5EBC3"/>
<stop offset="1" stop-color="white"/>
</linearGradient>
<linearGradient id="paint18_linear_311_245" x1="602.263" y1="360.019" x2="602.263" y2="366.431" gradientUnits="userSpaceOnUse">
<stop stop-color="#C5EBC3"/>
<stop offset="1" stop-color="white"/>
</linearGradient>
<linearGradient id="paint19_linear_311_245" x1="602.263" y1="313" x2="602.263" y2="319.412" gradientUnits="userSpaceOnUse">
<stop stop-color="#C5EBC3"/>
<stop offset="1" stop-color="white"/>
</linearGradient>
<linearGradient id="paint20_linear_311_245" x1="649.283" y1="501.077" x2="649.283" y2="507.489" gradientUnits="userSpaceOnUse">
<stop stop-color="#C5EBC3"/>
<stop offset="1" stop-color="white"/>
</linearGradient>
<linearGradient id="paint21_linear_311_245" x1="649.283" y1="454.058" x2="649.283" y2="460.47" gradientUnits="userSpaceOnUse">
<stop stop-color="#C5EBC3"/>
<stop offset="1" stop-color="white"/>
</linearGradient>
<linearGradient id="paint22_linear_311_245" x1="649.283" y1="407.039" x2="649.283" y2="413.45" gradientUnits="userSpaceOnUse">
<stop stop-color="#C5EBC3"/>
<stop offset="1" stop-color="white"/>
</linearGradient>
<linearGradient id="paint23_linear_311_245" x1="649.283" y1="360.019" x2="649.283" y2="366.431" gradientUnits="userSpaceOnUse">
<stop stop-color="#C5EBC3"/>
<stop offset="1" stop-color="white"/>
</linearGradient>
<linearGradient id="paint24_linear_311_245" x1="649.283" y1="313" x2="649.283" y2="319.412" gradientUnits="userSpaceOnUse">
<stop stop-color="#C5EBC3"/>
<stop offset="1" stop-color="white"/>
</linearGradient>
<clipPath id="clip0_311_245">
<rect width="225.112" height="97.8747" fill="white" transform="translate(180 181)"/>
</clipPath>
</defs>
</svg>
