<svg width="669" height="524" viewBox="0 0 669 524" fill="none" xmlns="http://www.w3.org/2000/svg">
<path fill-rule="evenodd" clip-rule="evenodd" d="M576.481 644.438C483.513 677.109 376.495 688.084 298.372 653.872C226.139 622.24 231.752 534.66 191.486 475.841C159.114 428.553 96.6094 399.933 86.0802 343.766C74.415 281.54 88.1733 212.342 130.732 151.756C175.306 88.3025 241.925 23.4838 324.213 4.76777C403.969 -13.3724 457.198 52.9484 534.226 59.9835C618.506 67.681 733.428 -0.0760267 789.224 47.2382C843.883 93.5884 761.208 185.844 764.866 255.563C768.918 332.791 848.911 396.474 811.59 473.516C772.924 553.333 672.081 610.842 576.481 644.438Z" fill="#C5EBC3"/>
<path fill-rule="evenodd" clip-rule="evenodd" d="M565.585 608.616C484.288 637.186 390.704 646.783 322.389 616.866C259.223 589.204 264.132 512.619 228.921 461.184C200.612 419.833 145.954 394.805 136.747 345.689C126.546 291.274 138.577 230.763 175.793 177.783C214.772 122.295 273.027 65.6133 344.986 49.2467C414.73 33.3838 461.276 91.379 528.635 97.531C602.335 104.262 702.83 45.011 751.622 86.3857C799.419 126.917 727.122 207.592 730.321 268.558C733.864 336.092 803.816 391.78 771.18 459.151C737.367 528.948 649.184 579.237 565.585 608.616Z" fill="white"/>
<ellipse cx="234.868" cy="512.863" rx="4.50805" ry="3.86803" transform="rotate(-90 234.868 512.863)" fill="url(#paint0_linear_311_247)"/>
<ellipse cx="234.868" cy="446.745" rx="4.50805" ry="3.86803" transform="rotate(-90 234.868 446.745)" fill="url(#paint1_linear_311_247)"/>
<ellipse cx="234.868" cy="380.626" rx="4.50805" ry="3.86803" transform="rotate(-90 234.868 380.626)" fill="url(#paint2_linear_311_247)"/>
<ellipse cx="234.868" cy="314.508" rx="4.50805" ry="3.86803" transform="rotate(-90 234.868 314.508)" fill="url(#paint3_linear_311_247)"/>
<ellipse cx="288.453" cy="512.863" rx="4.50805" ry="3.86803" transform="rotate(-90 288.453 512.863)" fill="url(#paint4_linear_311_247)"/>
<ellipse cx="288.453" cy="446.745" rx="4.50805" ry="3.86803" transform="rotate(-90 288.453 446.745)" fill="url(#paint5_linear_311_247)"/>
<ellipse cx="288.453" cy="380.626" rx="4.50805" ry="3.86803" transform="rotate(-90 288.453 380.626)" fill="url(#paint6_linear_311_247)"/>
<ellipse cx="288.453" cy="314.509" rx="4.50805" ry="3.86803" transform="rotate(-90 288.453 314.509)" fill="url(#paint7_linear_311_247)"/>
<ellipse cx="342.038" cy="512.863" rx="4.50805" ry="3.86803" transform="rotate(-90 342.038 512.863)" fill="url(#paint8_linear_311_247)"/>
<ellipse cx="342.038" cy="446.745" rx="4.50805" ry="3.86803" transform="rotate(-90 342.038 446.745)" fill="url(#paint9_linear_311_247)"/>
<ellipse cx="342.038" cy="380.626" rx="4.50805" ry="3.86803" transform="rotate(-90 342.038 380.626)" fill="url(#paint10_linear_311_247)"/>
<ellipse cx="342.038" cy="314.509" rx="4.50805" ry="3.86803" transform="rotate(-90 342.038 314.509)" fill="url(#paint11_linear_311_247)"/>
<ellipse cx="395.623" cy="512.863" rx="4.50805" ry="3.86803" transform="rotate(-90 395.623 512.863)" fill="url(#paint12_linear_311_247)"/>
<ellipse cx="395.623" cy="446.745" rx="4.50805" ry="3.86803" transform="rotate(-90 395.623 446.745)" fill="url(#paint13_linear_311_247)"/>
<ellipse cx="395.623" cy="380.626" rx="4.50805" ry="3.86803" transform="rotate(-90 395.623 380.626)" fill="url(#paint14_linear_311_247)"/>
<ellipse cx="395.623" cy="314.509" rx="4.50805" ry="3.86803" transform="rotate(-90 395.623 314.509)" fill="url(#paint15_linear_311_247)"/>
<ellipse cx="449.208" cy="512.863" rx="4.50805" ry="3.86803" transform="rotate(-90 449.208 512.863)" fill="url(#paint16_linear_311_247)"/>
<ellipse cx="449.208" cy="446.745" rx="4.50805" ry="3.86803" transform="rotate(-90 449.208 446.745)" fill="url(#paint17_linear_311_247)"/>
<ellipse cx="449.208" cy="380.626" rx="4.50805" ry="3.86803" transform="rotate(-90 449.208 380.626)" fill="url(#paint18_linear_311_247)"/>
<ellipse cx="449.208" cy="314.509" rx="4.50805" ry="3.86803" transform="rotate(-90 449.208 314.509)" fill="url(#paint19_linear_311_247)"/>
<ellipse cx="502.792" cy="512.863" rx="4.50805" ry="3.86803" transform="rotate(-90 502.792 512.863)" fill="url(#paint20_linear_311_247)"/>
<ellipse cx="502.792" cy="446.745" rx="4.50805" ry="3.86803" transform="rotate(-90 502.792 446.745)" fill="url(#paint21_linear_311_247)"/>
<ellipse cx="502.792" cy="380.626" rx="4.50805" ry="3.86803" transform="rotate(-90 502.792 380.626)" fill="url(#paint22_linear_311_247)"/>
<ellipse cx="502.792" cy="314.509" rx="4.50805" ry="3.86803" transform="rotate(-90 502.792 314.509)" fill="url(#paint23_linear_311_247)"/>
<ellipse cx="556.377" cy="512.863" rx="4.50805" ry="3.86803" transform="rotate(-90 556.377 512.863)" fill="url(#paint24_linear_311_247)"/>
<ellipse cx="556.377" cy="446.745" rx="4.50805" ry="3.86803" transform="rotate(-90 556.377 446.745)" fill="url(#paint25_linear_311_247)"/>
<ellipse cx="556.377" cy="380.626" rx="4.50805" ry="3.86803" transform="rotate(-90 556.377 380.626)" fill="url(#paint26_linear_311_247)"/>
<ellipse cx="556.377" cy="314.509" rx="4.50805" ry="3.86803" transform="rotate(-90 556.377 314.509)" fill="url(#paint27_linear_311_247)"/>
<ellipse cx="609.962" cy="512.863" rx="4.50805" ry="3.86803" transform="rotate(-90 609.962 512.863)" fill="url(#paint28_linear_311_247)"/>
<ellipse cx="609.962" cy="446.745" rx="4.50805" ry="3.86803" transform="rotate(-90 609.962 446.745)" fill="url(#paint29_linear_311_247)"/>
<ellipse cx="609.962" cy="380.626" rx="4.50805" ry="3.86803" transform="rotate(-90 609.962 380.626)" fill="url(#paint30_linear_311_247)"/>
<ellipse cx="609.962" cy="314.509" rx="4.50805" ry="3.86803" transform="rotate(-90 609.962 314.509)" fill="url(#paint31_linear_311_247)"/>
<ellipse cx="663.547" cy="512.863" rx="4.50805" ry="3.86803" transform="rotate(-90 663.547 512.863)" fill="url(#paint32_linear_311_247)"/>
<ellipse cx="663.547" cy="446.745" rx="4.50805" ry="3.86803" transform="rotate(-90 663.547 446.745)" fill="url(#paint33_linear_311_247)"/>
<ellipse cx="663.547" cy="380.626" rx="4.50805" ry="3.86803" transform="rotate(-90 663.547 380.626)" fill="url(#paint34_linear_311_247)"/>
<ellipse cx="663.547" cy="314.509" rx="4.50805" ry="3.86803" transform="rotate(-90 663.547 314.509)" fill="url(#paint35_linear_311_247)"/>
<defs>
<linearGradient id="paint0_linear_311_247" x1="234.868" y1="508.995" x2="234.868" y2="516.731" gradientUnits="userSpaceOnUse">
<stop stop-color="#C5EBC3"/>
<stop offset="1" stop-color="white"/>
</linearGradient>
<linearGradient id="paint1_linear_311_247" x1="234.868" y1="442.877" x2="234.868" y2="450.613" gradientUnits="userSpaceOnUse">
<stop stop-color="#C5EBC3"/>
<stop offset="1" stop-color="white"/>
</linearGradient>
<linearGradient id="paint2_linear_311_247" x1="234.868" y1="376.758" x2="234.868" y2="384.494" gradientUnits="userSpaceOnUse">
<stop stop-color="#C5EBC3"/>
<stop offset="1" stop-color="white"/>
</linearGradient>
<linearGradient id="paint3_linear_311_247" x1="234.868" y1="310.64" x2="234.868" y2="318.376" gradientUnits="userSpaceOnUse">
<stop stop-color="#C5EBC3"/>
<stop offset="1" stop-color="white"/>
</linearGradient>
<linearGradient id="paint4_linear_311_247" x1="288.453" y1="508.995" x2="288.453" y2="516.731" gradientUnits="userSpaceOnUse">
<stop stop-color="#C5EBC3"/>
<stop offset="1" stop-color="white"/>
</linearGradient>
<linearGradient id="paint5_linear_311_247" x1="288.453" y1="442.877" x2="288.453" y2="450.613" gradientUnits="userSpaceOnUse">
<stop stop-color="#C5EBC3"/>
<stop offset="1" stop-color="white"/>
</linearGradient>
<linearGradient id="paint6_linear_311_247" x1="288.453" y1="376.758" x2="288.453" y2="384.494" gradientUnits="userSpaceOnUse">
<stop stop-color="#C5EBC3"/>
<stop offset="1" stop-color="white"/>
</linearGradient>
<linearGradient id="paint7_linear_311_247" x1="288.453" y1="310.641" x2="288.453" y2="318.377" gradientUnits="userSpaceOnUse">
<stop stop-color="#C5EBC3"/>
<stop offset="1" stop-color="white"/>
</linearGradient>
<linearGradient id="paint8_linear_311_247" x1="342.038" y1="508.995" x2="342.038" y2="516.731" gradientUnits="userSpaceOnUse">
<stop stop-color="#C5EBC3"/>
<stop offset="1" stop-color="white"/>
</linearGradient>
<linearGradient id="paint9_linear_311_247" x1="342.038" y1="442.877" x2="342.038" y2="450.613" gradientUnits="userSpaceOnUse">
<stop stop-color="#C5EBC3"/>
<stop offset="1" stop-color="white"/>
</linearGradient>
<linearGradient id="paint10_linear_311_247" x1="342.038" y1="376.758" x2="342.038" y2="384.494" gradientUnits="userSpaceOnUse">
<stop stop-color="#C5EBC3"/>
<stop offset="1" stop-color="white"/>
</linearGradient>
<linearGradient id="paint11_linear_311_247" x1="342.038" y1="310.641" x2="342.038" y2="318.377" gradientUnits="userSpaceOnUse">
<stop stop-color="#C5EBC3"/>
<stop offset="1" stop-color="white"/>
</linearGradient>
<linearGradient id="paint12_linear_311_247" x1="395.623" y1="508.995" x2="395.623" y2="516.731" gradientUnits="userSpaceOnUse">
<stop stop-color="#C5EBC3"/>
<stop offset="1" stop-color="white"/>
</linearGradient>
<linearGradient id="paint13_linear_311_247" x1="395.623" y1="442.877" x2="395.623" y2="450.613" gradientUnits="userSpaceOnUse">
<stop stop-color="#C5EBC3"/>
<stop offset="1" stop-color="white"/>
</linearGradient>
<linearGradient id="paint14_linear_311_247" x1="395.623" y1="376.758" x2="395.623" y2="384.494" gradientUnits="userSpaceOnUse">
<stop stop-color="#C5EBC3"/>
<stop offset="1" stop-color="white"/>
</linearGradient>
<linearGradient id="paint15_linear_311_247" x1="395.623" y1="310.641" x2="395.623" y2="318.377" gradientUnits="userSpaceOnUse">
<stop stop-color="#C5EBC3"/>
<stop offset="1" stop-color="white"/>
</linearGradient>
<linearGradient id="paint16_linear_311_247" x1="449.208" y1="508.995" x2="449.208" y2="516.731" gradientUnits="userSpaceOnUse">
<stop stop-color="#C5EBC3"/>
<stop offset="1" stop-color="white"/>
</linearGradient>
<linearGradient id="paint17_linear_311_247" x1="449.208" y1="442.877" x2="449.208" y2="450.613" gradientUnits="userSpaceOnUse">
<stop stop-color="#C5EBC3"/>
<stop offset="1" stop-color="white"/>
</linearGradient>
<linearGradient id="paint18_linear_311_247" x1="449.208" y1="376.758" x2="449.208" y2="384.494" gradientUnits="userSpaceOnUse">
<stop stop-color="#C5EBC3"/>
<stop offset="1" stop-color="white"/>
</linearGradient>
<linearGradient id="paint19_linear_311_247" x1="449.208" y1="310.641" x2="449.208" y2="318.377" gradientUnits="userSpaceOnUse">
<stop stop-color="#C5EBC3"/>
<stop offset="1" stop-color="white"/>
</linearGradient>
<linearGradient id="paint20_linear_311_247" x1="502.792" y1="508.995" x2="502.792" y2="516.731" gradientUnits="userSpaceOnUse">
<stop stop-color="#C5EBC3"/>
<stop offset="1" stop-color="white"/>
</linearGradient>
<linearGradient id="paint21_linear_311_247" x1="502.792" y1="442.877" x2="502.792" y2="450.613" gradientUnits="userSpaceOnUse">
<stop stop-color="#C5EBC3"/>
<stop offset="1" stop-color="white"/>
</linearGradient>
<linearGradient id="paint22_linear_311_247" x1="502.792" y1="376.758" x2="502.792" y2="384.494" gradientUnits="userSpaceOnUse">
<stop stop-color="#C5EBC3"/>
<stop offset="1" stop-color="white"/>
</linearGradient>
<linearGradient id="paint23_linear_311_247" x1="502.792" y1="310.641" x2="502.792" y2="318.377" gradientUnits="userSpaceOnUse">
<stop stop-color="#C5EBC3"/>
<stop offset="1" stop-color="white"/>
</linearGradient>
<linearGradient id="paint24_linear_311_247" x1="556.377" y1="508.995" x2="556.377" y2="516.731" gradientUnits="userSpaceOnUse">
<stop stop-color="#C5EBC3"/>
<stop offset="1" stop-color="white"/>
</linearGradient>
<linearGradient id="paint25_linear_311_247" x1="556.377" y1="442.877" x2="556.377" y2="450.613" gradientUnits="userSpaceOnUse">
<stop stop-color="#C5EBC3"/>
<stop offset="1" stop-color="white"/>
</linearGradient>
<linearGradient id="paint26_linear_311_247" x1="556.377" y1="376.758" x2="556.377" y2="384.494" gradientUnits="userSpaceOnUse">
<stop stop-color="#C5EBC3"/>
<stop offset="1" stop-color="white"/>
</linearGradient>
<linearGradient id="paint27_linear_311_247" x1="556.377" y1="310.641" x2="556.377" y2="318.377" gradientUnits="userSpaceOnUse">
<stop stop-color="#C5EBC3"/>
<stop offset="1" stop-color="white"/>
</linearGradient>
<linearGradient id="paint28_linear_311_247" x1="609.962" y1="508.995" x2="609.962" y2="516.731" gradientUnits="userSpaceOnUse">
<stop stop-color="#C5EBC3"/>
<stop offset="1" stop-color="white"/>
</linearGradient>
<linearGradient id="paint29_linear_311_247" x1="609.962" y1="442.877" x2="609.962" y2="450.613" gradientUnits="userSpaceOnUse">
<stop stop-color="#C5EBC3"/>
<stop offset="1" stop-color="white"/>
</linearGradient>
<linearGradient id="paint30_linear_311_247" x1="609.962" y1="376.758" x2="609.962" y2="384.494" gradientUnits="userSpaceOnUse">
<stop stop-color="#C5EBC3"/>
<stop offset="1" stop-color="white"/>
</linearGradient>
<linearGradient id="paint31_linear_311_247" x1="609.962" y1="310.641" x2="609.962" y2="318.377" gradientUnits="userSpaceOnUse">
<stop stop-color="#C5EBC3"/>
<stop offset="1" stop-color="white"/>
</linearGradient>
<linearGradient id="paint32_linear_311_247" x1="663.547" y1="508.995" x2="663.547" y2="516.731" gradientUnits="userSpaceOnUse">
<stop stop-color="#C5EBC3"/>
<stop offset="1" stop-color="white"/>
</linearGradient>
<linearGradient id="paint33_linear_311_247" x1="663.547" y1="442.877" x2="663.547" y2="450.613" gradientUnits="userSpaceOnUse">
<stop stop-color="#C5EBC3"/>
<stop offset="1" stop-color="white"/>
</linearGradient>
<linearGradient id="paint34_linear_311_247" x1="663.547" y1="376.758" x2="663.547" y2="384.494" gradientUnits="userSpaceOnUse">
<stop stop-color="#C5EBC3"/>
<stop offset="1" stop-color="white"/>
</linearGradient>
<linearGradient id="paint35_linear_311_247" x1="663.547" y1="310.641" x2="663.547" y2="318.377" gradientUnits="userSpaceOnUse">
<stop stop-color="#C5EBC3"/>
<stop offset="1" stop-color="white"/>
</linearGradient>
</defs>
</svg>
