<svg width="790" height="685" viewBox="0 0 790 685" fill="none" xmlns="http://www.w3.org/2000/svg">
<path fill-rule="evenodd" clip-rule="evenodd" d="M486.072 -286.268C599.123 -281.041 718.042 -240.159 787.068 -155.045C850.89 -76.3475 808.007 35.3985 826.237 133.181C840.894 211.794 895.594 281.527 883.183 360.487C869.432 447.965 825.592 531.444 754.621 588.782C680.29 648.834 581.839 699.292 486.072 681.311C393.251 663.883 364.337 549.588 285.033 500.614C198.263 447.029 46.9868 476.396 7.32479 385.656C-31.5292 296.765 95.6264 218.681 121.085 125.528C149.285 22.3425 90.6737 -102.316 162.983 -183.899C237.897 -268.421 369.82 -291.642 486.072 -286.268Z" fill="white"/>
<path fill-rule="evenodd" clip-rule="evenodd" d="M491.724 -249.323C596.089 -244.494 705.87 -206.725 769.592 -128.091C828.511 -55.3848 788.923 47.8538 805.752 138.192C819.283 210.82 869.78 275.244 858.322 348.193C845.628 429.011 805.157 506.135 739.639 559.107C671.019 614.587 580.133 661.204 491.724 644.592C406.035 628.491 379.342 522.897 306.132 477.651C226.03 428.146 86.3765 455.278 49.762 371.446C13.8934 289.322 131.279 217.182 154.781 131.122C180.815 35.7917 126.707 -79.3766 193.46 -154.748C262.618 -232.835 384.404 -254.289 491.724 -249.323Z" fill="#C5EBC3"/>
</svg>
