<svg width="673" height="524" viewBox="0 0 673 524" fill="none" xmlns="http://www.w3.org/2000/svg">
<path fill-rule="evenodd" clip-rule="evenodd" d="M95.9943 644.153C188.962 676.824 295.98 687.799 374.103 653.588C446.336 621.955 440.723 534.376 480.989 475.557C513.361 428.269 575.866 399.649 586.395 343.481C598.06 281.255 584.302 212.057 541.743 151.472C497.169 88.018 430.55 23.1993 348.262 4.48329C268.506 -13.6569 215.277 52.6639 138.249 59.699C53.9691 67.3965 -60.9533 -0.360512 -116.749 46.9537C-171.408 93.304 -88.7326 185.56 -92.3905 255.278C-96.4424 332.507 -176.436 396.189 -139.115 473.231C-100.448 553.048 0.394092 610.557 95.9943 644.153Z" fill="#C5EBC3"/>
<ellipse cx="72.868" cy="516.98" rx="4.50805" ry="3.86803" transform="rotate(-90 72.868 516.98)" fill="url(#paint0_linear_311_246)"/>
<ellipse cx="72.868" cy="450.863" rx="4.50805" ry="3.86803" transform="rotate(-90 72.868 450.863)" fill="url(#paint1_linear_311_246)"/>
<ellipse cx="72.868" cy="384.745" rx="4.50805" ry="3.86803" transform="rotate(-90 72.868 384.745)" fill="url(#paint2_linear_311_246)"/>
<ellipse cx="72.868" cy="318.626" rx="4.50805" ry="3.86803" transform="rotate(-90 72.868 318.626)" fill="url(#paint3_linear_311_246)"/>
<ellipse cx="72.868" cy="252.508" rx="4.50805" ry="3.86803" transform="rotate(-90 72.868 252.508)" fill="url(#paint4_linear_311_246)"/>
<ellipse cx="126.453" cy="516.981" rx="4.50805" ry="3.86803" transform="rotate(-90 126.453 516.981)" fill="url(#paint5_linear_311_246)"/>
<ellipse cx="126.453" cy="450.863" rx="4.50805" ry="3.86803" transform="rotate(-90 126.453 450.863)" fill="url(#paint6_linear_311_246)"/>
<ellipse cx="126.453" cy="384.745" rx="4.50805" ry="3.86803" transform="rotate(-90 126.453 384.745)" fill="url(#paint7_linear_311_246)"/>
<ellipse cx="126.453" cy="318.626" rx="4.50805" ry="3.86803" transform="rotate(-90 126.453 318.626)" fill="url(#paint8_linear_311_246)"/>
<ellipse cx="126.453" cy="252.509" rx="4.50805" ry="3.86803" transform="rotate(-90 126.453 252.509)" fill="url(#paint9_linear_311_246)"/>
<ellipse cx="180.038" cy="516.981" rx="4.50805" ry="3.86803" transform="rotate(-90 180.038 516.981)" fill="url(#paint10_linear_311_246)"/>
<ellipse cx="180.038" cy="450.863" rx="4.50805" ry="3.86803" transform="rotate(-90 180.038 450.863)" fill="url(#paint11_linear_311_246)"/>
<ellipse cx="180.038" cy="384.745" rx="4.50805" ry="3.86803" transform="rotate(-90 180.038 384.745)" fill="url(#paint12_linear_311_246)"/>
<ellipse cx="180.038" cy="318.626" rx="4.50805" ry="3.86803" transform="rotate(-90 180.038 318.626)" fill="url(#paint13_linear_311_246)"/>
<ellipse cx="180.038" cy="252.509" rx="4.50805" ry="3.86803" transform="rotate(-90 180.038 252.509)" fill="url(#paint14_linear_311_246)"/>
<ellipse cx="233.623" cy="516.981" rx="4.50805" ry="3.86803" transform="rotate(-90 233.623 516.981)" fill="url(#paint15_linear_311_246)"/>
<ellipse cx="233.623" cy="450.863" rx="4.50805" ry="3.86803" transform="rotate(-90 233.623 450.863)" fill="url(#paint16_linear_311_246)"/>
<ellipse cx="233.623" cy="384.745" rx="4.50805" ry="3.86803" transform="rotate(-90 233.623 384.745)" fill="url(#paint17_linear_311_246)"/>
<ellipse cx="233.623" cy="318.626" rx="4.50805" ry="3.86803" transform="rotate(-90 233.623 318.626)" fill="url(#paint18_linear_311_246)"/>
<ellipse cx="233.623" cy="252.509" rx="4.50805" ry="3.86803" transform="rotate(-90 233.623 252.509)" fill="url(#paint19_linear_311_246)"/>
<ellipse cx="287.208" cy="516.981" rx="4.50805" ry="3.86803" transform="rotate(-90 287.208 516.981)" fill="url(#paint20_linear_311_246)"/>
<ellipse cx="287.208" cy="450.863" rx="4.50805" ry="3.86803" transform="rotate(-90 287.208 450.863)" fill="url(#paint21_linear_311_246)"/>
<ellipse cx="287.208" cy="384.745" rx="4.50805" ry="3.86803" transform="rotate(-90 287.208 384.745)" fill="url(#paint22_linear_311_246)"/>
<ellipse cx="287.208" cy="318.626" rx="4.50805" ry="3.86803" transform="rotate(-90 287.208 318.626)" fill="url(#paint23_linear_311_246)"/>
<ellipse cx="287.208" cy="252.509" rx="4.50805" ry="3.86803" transform="rotate(-90 287.208 252.509)" fill="url(#paint24_linear_311_246)"/>
<ellipse cx="340.792" cy="516.981" rx="4.50805" ry="3.86803" transform="rotate(-90 340.792 516.981)" fill="url(#paint25_linear_311_246)"/>
<ellipse cx="340.792" cy="450.863" rx="4.50805" ry="3.86803" transform="rotate(-90 340.792 450.863)" fill="url(#paint26_linear_311_246)"/>
<ellipse cx="340.792" cy="384.745" rx="4.50805" ry="3.86803" transform="rotate(-90 340.792 384.745)" fill="url(#paint27_linear_311_246)"/>
<ellipse cx="340.792" cy="318.626" rx="4.50805" ry="3.86803" transform="rotate(-90 340.792 318.626)" fill="url(#paint28_linear_311_246)"/>
<ellipse cx="340.792" cy="252.509" rx="4.50805" ry="3.86803" transform="rotate(-90 340.792 252.509)" fill="url(#paint29_linear_311_246)"/>
<ellipse cx="394.377" cy="516.981" rx="4.50805" ry="3.86803" transform="rotate(-90 394.377 516.981)" fill="url(#paint30_linear_311_246)"/>
<ellipse cx="394.377" cy="450.863" rx="4.50805" ry="3.86803" transform="rotate(-90 394.377 450.863)" fill="url(#paint31_linear_311_246)"/>
<ellipse cx="394.377" cy="384.745" rx="4.50805" ry="3.86803" transform="rotate(-90 394.377 384.745)" fill="url(#paint32_linear_311_246)"/>
<ellipse cx="394.377" cy="318.626" rx="4.50805" ry="3.86803" transform="rotate(-90 394.377 318.626)" fill="url(#paint33_linear_311_246)"/>
<ellipse cx="394.377" cy="252.509" rx="4.50805" ry="3.86803" transform="rotate(-90 394.377 252.509)" fill="url(#paint34_linear_311_246)"/>
<ellipse cx="447.962" cy="516.981" rx="4.50805" ry="3.86803" transform="rotate(-90 447.962 516.981)" fill="url(#paint35_linear_311_246)"/>
<ellipse cx="447.962" cy="450.863" rx="4.50805" ry="3.86803" transform="rotate(-90 447.962 450.863)" fill="url(#paint36_linear_311_246)"/>
<ellipse cx="447.962" cy="384.745" rx="4.50805" ry="3.86803" transform="rotate(-90 447.962 384.745)" fill="url(#paint37_linear_311_246)"/>
<ellipse cx="447.962" cy="318.626" rx="4.50805" ry="3.86803" transform="rotate(-90 447.962 318.626)" fill="url(#paint38_linear_311_246)"/>
<ellipse cx="447.962" cy="252.509" rx="4.50805" ry="3.86803" transform="rotate(-90 447.962 252.509)" fill="url(#paint39_linear_311_246)"/>
<ellipse cx="501.547" cy="516.981" rx="4.50805" ry="3.86803" transform="rotate(-90 501.547 516.981)" fill="url(#paint40_linear_311_246)"/>
<ellipse cx="501.547" cy="450.863" rx="4.50805" ry="3.86803" transform="rotate(-90 501.547 450.863)" fill="url(#paint41_linear_311_246)"/>
<ellipse cx="501.547" cy="384.745" rx="4.50805" ry="3.86803" transform="rotate(-90 501.547 384.745)" fill="url(#paint42_linear_311_246)"/>
<ellipse cx="501.547" cy="318.626" rx="4.50805" ry="3.86803" transform="rotate(-90 501.547 318.626)" fill="url(#paint43_linear_311_246)"/>
<ellipse cx="501.547" cy="252.509" rx="4.50805" ry="3.86803" transform="rotate(-90 501.547 252.509)" fill="url(#paint44_linear_311_246)"/>
<ellipse cx="555.132" cy="516.981" rx="4.50805" ry="3.86803" transform="rotate(-90 555.132 516.981)" fill="url(#paint45_linear_311_246)"/>
<ellipse cx="555.132" cy="450.863" rx="4.50805" ry="3.86803" transform="rotate(-90 555.132 450.863)" fill="url(#paint46_linear_311_246)"/>
<ellipse cx="555.132" cy="384.745" rx="4.50805" ry="3.86803" transform="rotate(-90 555.132 384.745)" fill="url(#paint47_linear_311_246)"/>
<ellipse cx="555.132" cy="318.626" rx="4.50805" ry="3.86803" transform="rotate(-90 555.132 318.626)" fill="url(#paint48_linear_311_246)"/>
<ellipse cx="555.132" cy="252.509" rx="4.50805" ry="3.86803" transform="rotate(-90 555.132 252.509)" fill="url(#paint49_linear_311_246)"/>
<defs>
<linearGradient id="paint0_linear_311_246" x1="72.868" y1="513.112" x2="72.868" y2="520.848" gradientUnits="userSpaceOnUse">
<stop stop-color="#C5EBC3"/>
<stop offset="1" stop-color="white"/>
</linearGradient>
<linearGradient id="paint1_linear_311_246" x1="72.868" y1="446.995" x2="72.868" y2="454.731" gradientUnits="userSpaceOnUse">
<stop stop-color="#C5EBC3"/>
<stop offset="1" stop-color="white"/>
</linearGradient>
<linearGradient id="paint2_linear_311_246" x1="72.868" y1="380.877" x2="72.868" y2="388.613" gradientUnits="userSpaceOnUse">
<stop stop-color="#C5EBC3"/>
<stop offset="1" stop-color="white"/>
</linearGradient>
<linearGradient id="paint3_linear_311_246" x1="72.868" y1="314.758" x2="72.868" y2="322.494" gradientUnits="userSpaceOnUse">
<stop stop-color="#C5EBC3"/>
<stop offset="1" stop-color="white"/>
</linearGradient>
<linearGradient id="paint4_linear_311_246" x1="72.868" y1="248.64" x2="72.868" y2="256.376" gradientUnits="userSpaceOnUse">
<stop stop-color="#C5EBC3"/>
<stop offset="1" stop-color="white"/>
</linearGradient>
<linearGradient id="paint5_linear_311_246" x1="126.453" y1="513.113" x2="126.453" y2="520.849" gradientUnits="userSpaceOnUse">
<stop stop-color="#C5EBC3"/>
<stop offset="1" stop-color="white"/>
</linearGradient>
<linearGradient id="paint6_linear_311_246" x1="126.453" y1="446.995" x2="126.453" y2="454.731" gradientUnits="userSpaceOnUse">
<stop stop-color="#C5EBC3"/>
<stop offset="1" stop-color="white"/>
</linearGradient>
<linearGradient id="paint7_linear_311_246" x1="126.453" y1="380.877" x2="126.453" y2="388.613" gradientUnits="userSpaceOnUse">
<stop stop-color="#C5EBC3"/>
<stop offset="1" stop-color="white"/>
</linearGradient>
<linearGradient id="paint8_linear_311_246" x1="126.453" y1="314.758" x2="126.453" y2="322.494" gradientUnits="userSpaceOnUse">
<stop stop-color="#C5EBC3"/>
<stop offset="1" stop-color="white"/>
</linearGradient>
<linearGradient id="paint9_linear_311_246" x1="126.453" y1="248.641" x2="126.453" y2="256.377" gradientUnits="userSpaceOnUse">
<stop stop-color="#C5EBC3"/>
<stop offset="1" stop-color="white"/>
</linearGradient>
<linearGradient id="paint10_linear_311_246" x1="180.038" y1="513.113" x2="180.038" y2="520.849" gradientUnits="userSpaceOnUse">
<stop stop-color="#C5EBC3"/>
<stop offset="1" stop-color="white"/>
</linearGradient>
<linearGradient id="paint11_linear_311_246" x1="180.038" y1="446.995" x2="180.038" y2="454.731" gradientUnits="userSpaceOnUse">
<stop stop-color="#C5EBC3"/>
<stop offset="1" stop-color="white"/>
</linearGradient>
<linearGradient id="paint12_linear_311_246" x1="180.038" y1="380.877" x2="180.038" y2="388.613" gradientUnits="userSpaceOnUse">
<stop stop-color="#C5EBC3"/>
<stop offset="1" stop-color="white"/>
</linearGradient>
<linearGradient id="paint13_linear_311_246" x1="180.038" y1="314.758" x2="180.038" y2="322.494" gradientUnits="userSpaceOnUse">
<stop stop-color="#C5EBC3"/>
<stop offset="1" stop-color="white"/>
</linearGradient>
<linearGradient id="paint14_linear_311_246" x1="180.038" y1="248.641" x2="180.038" y2="256.377" gradientUnits="userSpaceOnUse">
<stop stop-color="#C5EBC3"/>
<stop offset="1" stop-color="white"/>
</linearGradient>
<linearGradient id="paint15_linear_311_246" x1="233.623" y1="513.113" x2="233.623" y2="520.849" gradientUnits="userSpaceOnUse">
<stop stop-color="#C5EBC3"/>
<stop offset="1" stop-color="white"/>
</linearGradient>
<linearGradient id="paint16_linear_311_246" x1="233.623" y1="446.995" x2="233.623" y2="454.731" gradientUnits="userSpaceOnUse">
<stop stop-color="#C5EBC3"/>
<stop offset="1" stop-color="white"/>
</linearGradient>
<linearGradient id="paint17_linear_311_246" x1="233.623" y1="380.877" x2="233.623" y2="388.613" gradientUnits="userSpaceOnUse">
<stop stop-color="#C5EBC3"/>
<stop offset="1" stop-color="white"/>
</linearGradient>
<linearGradient id="paint18_linear_311_246" x1="233.623" y1="314.758" x2="233.623" y2="322.494" gradientUnits="userSpaceOnUse">
<stop stop-color="#C5EBC3"/>
<stop offset="1" stop-color="white"/>
</linearGradient>
<linearGradient id="paint19_linear_311_246" x1="233.623" y1="248.641" x2="233.623" y2="256.377" gradientUnits="userSpaceOnUse">
<stop stop-color="#C5EBC3"/>
<stop offset="1" stop-color="white"/>
</linearGradient>
<linearGradient id="paint20_linear_311_246" x1="287.208" y1="513.113" x2="287.208" y2="520.849" gradientUnits="userSpaceOnUse">
<stop stop-color="#C5EBC3"/>
<stop offset="1" stop-color="white"/>
</linearGradient>
<linearGradient id="paint21_linear_311_246" x1="287.208" y1="446.995" x2="287.208" y2="454.731" gradientUnits="userSpaceOnUse">
<stop stop-color="#C5EBC3"/>
<stop offset="1" stop-color="white"/>
</linearGradient>
<linearGradient id="paint22_linear_311_246" x1="287.208" y1="380.877" x2="287.208" y2="388.613" gradientUnits="userSpaceOnUse">
<stop stop-color="#C5EBC3"/>
<stop offset="1" stop-color="white"/>
</linearGradient>
<linearGradient id="paint23_linear_311_246" x1="287.208" y1="314.758" x2="287.208" y2="322.494" gradientUnits="userSpaceOnUse">
<stop stop-color="#C5EBC3"/>
<stop offset="1" stop-color="white"/>
</linearGradient>
<linearGradient id="paint24_linear_311_246" x1="287.208" y1="248.641" x2="287.208" y2="256.377" gradientUnits="userSpaceOnUse">
<stop stop-color="#C5EBC3"/>
<stop offset="1" stop-color="white"/>
</linearGradient>
<linearGradient id="paint25_linear_311_246" x1="340.792" y1="513.113" x2="340.792" y2="520.849" gradientUnits="userSpaceOnUse">
<stop stop-color="#C5EBC3"/>
<stop offset="1" stop-color="white"/>
</linearGradient>
<linearGradient id="paint26_linear_311_246" x1="340.792" y1="446.995" x2="340.792" y2="454.731" gradientUnits="userSpaceOnUse">
<stop stop-color="#C5EBC3"/>
<stop offset="1" stop-color="white"/>
</linearGradient>
<linearGradient id="paint27_linear_311_246" x1="340.792" y1="380.877" x2="340.792" y2="388.613" gradientUnits="userSpaceOnUse">
<stop stop-color="#C5EBC3"/>
<stop offset="1" stop-color="white"/>
</linearGradient>
<linearGradient id="paint28_linear_311_246" x1="340.792" y1="314.758" x2="340.792" y2="322.494" gradientUnits="userSpaceOnUse">
<stop stop-color="#C5EBC3"/>
<stop offset="1" stop-color="white"/>
</linearGradient>
<linearGradient id="paint29_linear_311_246" x1="340.792" y1="248.641" x2="340.792" y2="256.377" gradientUnits="userSpaceOnUse">
<stop stop-color="#C5EBC3"/>
<stop offset="1" stop-color="white"/>
</linearGradient>
<linearGradient id="paint30_linear_311_246" x1="394.377" y1="513.113" x2="394.377" y2="520.849" gradientUnits="userSpaceOnUse">
<stop stop-color="#C5EBC3"/>
<stop offset="1" stop-color="white"/>
</linearGradient>
<linearGradient id="paint31_linear_311_246" x1="394.377" y1="446.995" x2="394.377" y2="454.731" gradientUnits="userSpaceOnUse">
<stop stop-color="#C5EBC3"/>
<stop offset="1" stop-color="white"/>
</linearGradient>
<linearGradient id="paint32_linear_311_246" x1="394.377" y1="380.877" x2="394.377" y2="388.613" gradientUnits="userSpaceOnUse">
<stop stop-color="#C5EBC3"/>
<stop offset="1" stop-color="white"/>
</linearGradient>
<linearGradient id="paint33_linear_311_246" x1="394.377" y1="314.758" x2="394.377" y2="322.494" gradientUnits="userSpaceOnUse">
<stop stop-color="#C5EBC3"/>
<stop offset="1" stop-color="white"/>
</linearGradient>
<linearGradient id="paint34_linear_311_246" x1="394.377" y1="248.641" x2="394.377" y2="256.377" gradientUnits="userSpaceOnUse">
<stop stop-color="#C5EBC3"/>
<stop offset="1" stop-color="white"/>
</linearGradient>
<linearGradient id="paint35_linear_311_246" x1="447.962" y1="513.113" x2="447.962" y2="520.849" gradientUnits="userSpaceOnUse">
<stop stop-color="#C5EBC3"/>
<stop offset="1" stop-color="white"/>
</linearGradient>
<linearGradient id="paint36_linear_311_246" x1="447.962" y1="446.995" x2="447.962" y2="454.731" gradientUnits="userSpaceOnUse">
<stop stop-color="#C5EBC3"/>
<stop offset="1" stop-color="white"/>
</linearGradient>
<linearGradient id="paint37_linear_311_246" x1="447.962" y1="380.877" x2="447.962" y2="388.613" gradientUnits="userSpaceOnUse">
<stop stop-color="#C5EBC3"/>
<stop offset="1" stop-color="white"/>
</linearGradient>
<linearGradient id="paint38_linear_311_246" x1="447.962" y1="314.758" x2="447.962" y2="322.494" gradientUnits="userSpaceOnUse">
<stop stop-color="#C5EBC3"/>
<stop offset="1" stop-color="white"/>
</linearGradient>
<linearGradient id="paint39_linear_311_246" x1="447.962" y1="248.641" x2="447.962" y2="256.377" gradientUnits="userSpaceOnUse">
<stop stop-color="#C5EBC3"/>
<stop offset="1" stop-color="white"/>
</linearGradient>
<linearGradient id="paint40_linear_311_246" x1="501.547" y1="513.113" x2="501.547" y2="520.849" gradientUnits="userSpaceOnUse">
<stop stop-color="#C5EBC3"/>
<stop offset="1" stop-color="white"/>
</linearGradient>
<linearGradient id="paint41_linear_311_246" x1="501.547" y1="446.995" x2="501.547" y2="454.731" gradientUnits="userSpaceOnUse">
<stop stop-color="#C5EBC3"/>
<stop offset="1" stop-color="white"/>
</linearGradient>
<linearGradient id="paint42_linear_311_246" x1="501.547" y1="380.877" x2="501.547" y2="388.613" gradientUnits="userSpaceOnUse">
<stop stop-color="#C5EBC3"/>
<stop offset="1" stop-color="white"/>
</linearGradient>
<linearGradient id="paint43_linear_311_246" x1="501.547" y1="314.758" x2="501.547" y2="322.494" gradientUnits="userSpaceOnUse">
<stop stop-color="#C5EBC3"/>
<stop offset="1" stop-color="white"/>
</linearGradient>
<linearGradient id="paint44_linear_311_246" x1="501.547" y1="248.641" x2="501.547" y2="256.377" gradientUnits="userSpaceOnUse">
<stop stop-color="#C5EBC3"/>
<stop offset="1" stop-color="white"/>
</linearGradient>
<linearGradient id="paint45_linear_311_246" x1="555.132" y1="513.113" x2="555.132" y2="520.849" gradientUnits="userSpaceOnUse">
<stop stop-color="#C5EBC3"/>
<stop offset="1" stop-color="white"/>
</linearGradient>
<linearGradient id="paint46_linear_311_246" x1="555.132" y1="446.995" x2="555.132" y2="454.731" gradientUnits="userSpaceOnUse">
<stop stop-color="#C5EBC3"/>
<stop offset="1" stop-color="white"/>
</linearGradient>
<linearGradient id="paint47_linear_311_246" x1="555.132" y1="380.877" x2="555.132" y2="388.613" gradientUnits="userSpaceOnUse">
<stop stop-color="#C5EBC3"/>
<stop offset="1" stop-color="white"/>
</linearGradient>
<linearGradient id="paint48_linear_311_246" x1="555.132" y1="314.758" x2="555.132" y2="322.494" gradientUnits="userSpaceOnUse">
<stop stop-color="#C5EBC3"/>
<stop offset="1" stop-color="white"/>
</linearGradient>
<linearGradient id="paint49_linear_311_246" x1="555.132" y1="248.641" x2="555.132" y2="256.377" gradientUnits="userSpaceOnUse">
<stop stop-color="#C5EBC3"/>
<stop offset="1" stop-color="white"/>
</linearGradient>
</defs>
</svg>
