<svg width="1440" height="309" viewBox="0 0 1440 309" fill="none" xmlns="http://www.w3.org/2000/svg">
<path fill-rule="evenodd" clip-rule="evenodd" d="M0 231.532L60 205.806C120 180.08 240 128.629 360 135.06C480 141.492 600 205.806 720 205.806C840 205.806 960 141.492 1080 96.4716C1200 51.4515 1320 25.7258 1380 12.8629L1440 0V308.709H1380C1320 308.709 1200 308.709 1080 308.709C960 308.709 840 308.709 720 308.709C600 308.709 480 308.709 360 308.709C240 308.709 120 308.709 60 308.709H0V231.532Z" fill="#C5EBC3"/>
</svg>
